<svg clip-rule="evenodd" fill-rule="evenodd" height="1080" image-rendering="optimizeQuality" shape-rendering="geometricPrecision" text-rendering="geometricPrecision" viewBox="0 0 3374 1080.08" width="3374" xmlns="http://www.w3.org/2000/svg"><g fill-rule="nonzero"><path d="m637.98.07c-47.36 0-74.95 36.52-74.95 88.85v33.8 331.73 34.76c0 51.16 27.59 88.23 74.95 88.23 46.47 0 75.29-37.07 75.29-88.23v-34.76-331.73-33.8c0-52.33-28.82-88.85-75.29-88.85z" fill="#1756c2"/><path d="m990.24 158.59h-35.32v-21.95c0-24.64 14.35-35.02 52.32-30.7 40.4 3.75 49.48-21.96 49.48-42.5 0-15.89-4.64-23.96-16.9-38.19-26.18-25.96-92.42-25.19-92.42-25.19s-60.04-2.77-100.76 29.56c-40.55 31.47-37.01 88.78-37.01 88.78v40.19h-6.5c-26.95 0-55.56 16.78-55.56 51.21 0 34.68 32.46 50.57 58.51 50.57h3.54v238.9c0 41.09 25.19 78.16 74.87 78.16 50.69 0 70.43-35.91 70.43-75.84v-241.22h35.31c19.53 0 58.3-9.52 58.3-48.56 0-40.54-30.58-53.22-58.3-53.22z" fill="#1756c2"/><path d="m1413.95 145.36c-24.3 0-43.73 10.93-56.45 27.5-23.37-16.23-54.17-27.5-90.07-27.5-153 0-220.78 115.02-220.78 226.07 0 118.89 82.35 210.87 220.78 210.87 32.8 0 64.39-10.93 89.88-27.71 12.48 16.99 32.03 27.71 56.64 27.71 47.58 0 74.71-36.67 74.71-88.44v-259.75c0-50.88-27.13-88.75-74.71-88.75zm-218.7 220.33c0-94.6 45.91-111.38 76.73-111.38h3.85c35.44 2.78 63.35 26.4 63.35 115.48 0 87.64-30.24 105.2-61.6 106.95-1.85 0-2.77 0-4.74 0-35.2 0-77.6-16.78-77.6-111.05z" fill="#1756c2"/><path d="m505.04 463.71c-7.79-23.4-134.21-383.82-140.48-400.83-6.96-17.09-13.37-29.47-28.64-40.15-25.25-19.15-79.33-18.01-79.33-18.01s-53.34-1.23-79.05 18.01c-15.03 10.69-21.44 23.07-28.06 40.15-6.4 17-132.82 377.43-141.53 400.83-7.08 22.88-13.21 50.91 0 73.76 14.5 21.4 38.42 39.97 69.34 39.97 31.35 0 59.17-13.62 71.3-51.79 11.83-39.06 18.02-58.15 18.02-58.15h89.98 90.47s5.88 19.1 17.8 58.15c11.92 38.18 40.4 51.79 70.9 51.79 32.08 0 56.59-18.57 69.28-39.97 13.74-22.85 8.41-50.88 0-73.76zm-304.44-120.35 55.99-182.79 56.17 182.79z" fill="#1756c2"/><path d="m3177.35 1011.49h-3177.35v68.59h3177.35c97.5 0 179.16-71.67 194.07-164.51-43.7 58.41-114.8 95.92-194.07 95.92z" fill="#efcf00"/><g fill="#d60f27"><path d="m3373.85 767.76v-54.97h-3176.76c-108.45 0-197.09 88.71-197.09 197.26v54.97h3177.35c108.65 0 196.5-88.84 196.5-197.26z"/><path d="m2137.91 140.92c-80.38 0-158.54 107.63-186.25 149.27 1.23-9.49 3.3-23.96 7.73-40.5 5.85-27.41 10.93-66.24-7.73-89.12-10.93-13.24-27.04-19.65-48.66-19.65-74.43 0-147.96 94.95-179.4 141.42 3.72-13.58 8.16-30.58 11.14-40.4 4.87-22.85 14.48-58.48-.92-79.24-9.18-12.81-24.3-18.57-45.73-18.57-35.01 0-73.97 16.44-75.6 16.44l-7.94 3.57 7.27 4.28s10.71 10.72 2.46 67.44c-14.14 99.71-46.68 218.58-59.37 265.73-7.3 24.05-6.19 43.69 3.42 56.72 10.13 13.27 28.58 20.88 51.59 20.88 32.08 0 61.25-10.72 62.88-12.26l4.74-1.23-3.76-4.83c0-.31-16.75-25.19 5.33-73.54 74.4-165.5 134.55-231.4 151.35-242.64 3.98-1.85 6.29-4.06 9.15-4.06 1.85 0 2.77 1.23 2.77 2.15 1.85.92 2.16 4.99 1.85 8.72-6.07 57.52-30.36 153.58-46 217.81-3.36 14.69-6.96 26.64-8.87 36.68-5.72 24.6-3.82 43.69 5.52 56.38 9.29 10.5 24.32 16.57 45.6 16.57 33.35 0 62.85-12.26 64.05-12.47l6.07-2.47-4.53-4.09c0-1.54-16.1-22.55 6.5-73.72 54.99-127.31 129.27-226.77 148.58-241.24 6.53-4.59 9.86-5.18 11.83-5.18.61 0 .92 0 2.15 1.85 1.54 1.54 2.16 6.99 1.54 13.58-.31 2.46-2.46 10.38-4.19 22.17-11.02 44.06-30.57 135.16-41.29 198.54-6.41 37.84-3.3 66.2 10.72 82.34 11.36 13.03 29.16 20.63 50.78 20.63 37.75 0 72.65-23.52 74.18-24.38l5.51-3.76-5.05-3.42s-26.73-25.19-13.61-99.47c9.3-49.79 21.31-107.07 30.36-148.71 4.32-20.88 7.09-38.22 9.4-47.7l.61-3.73c4.84-22.85 12.14-64.57-7.63-88.22-10.47-13.68-26.27-18.88-48.23-18.88z"/><path d="m2607.62 145.36c-22.82 0-41.39 6.1-54.08 18.42-9.3-5.73-40.99-22.85-82.58-22.85-23.75 0-58.65 4.43-97.81 29.25-43.49 26.95-80.16 70-110.06 128.94-67.66 131.93-35.23 228.28-18.23 251.93 14.81 20.54 35.32 29.81 64.91 29.81 41.84 0 97.49-16.44 182.37-149.81-2.47 18.79-5.27 45.17-5.27 67.68 0 72.65 51.18 80.47 72.28 80.47 54.65 0 73.72-25.5 73.87-26.36l2.16-2.77-2.16-2.77c-.62-.93-25.47-26.3-9.12-161.43 15.77-128.72 60.45-217.47 60.45-218.55l2.16-3.58-3.79-2.46c-1.54-.62-38.4-15.89-75.05-15.89zm-236.13 336.58c-11.15 0-17.09-19.09-17.09-39.08 0-21.64 10.81-146.27 63.56-210.2 11.7-12.44 25.62-20.29 39.52-20.29 33.78 0 65.37 36.17 73.19 45.48-40.95 83.24-98.48 169.47-139.41 211.72-7.51 8.4-14.78 12.38-19.77 12.38z"/><path d="m3027.02 140.92c-59.1 0-130.05 97.81-160.08 143.17 4.96-19.61 12.25-48.54 17.86-75.17 3.88-19.96 1.23-35.54-6.5-46.01-10.16-11.46-26.91-17.55-50.34-17.55-33.54 0-74.04 14.65-75.48 15.21l-5.89 2.46 5.21 4.44c0 .61 10.93 16.1 4.19 70.52-9.4 59.29-47.12 207.1-63.03 266.94-7.3 24.05-5.52 41.59 3.32 54.06 13.46 18.23 39.63 20.33 57.64 20.33 30.65 0 61.14-10.72 62.46-12.26l5.85-1.23-3.51-4.83c-.22-.31-14.6-23.22 2.16-67.48 45.14-113.94 95.31-180.49 125.42-203.33 6.96-4.87 14.04-7.86 21-7.86 16.54 0 27.04 18.57 27.04 18.57l2.46 4.65 3.67-3.75c15.76-15.68 43.91-48.95 54.17-78.96 7.08-17.99 16.26-49.98 2.46-68.55-5.73-9.27-15.98-13.36-30.12-13.36z"/><path d="m3368.23 194.48c-16.57 5.72-57.29 9.48-111.94 9.48-6.16 0-11.24 0-14.66 0 2.46-14.13 12.35-54.08 23.06-91.95 6.75-22.85 5.98-41.61-3.66-53.74-9.49-11.61-25.04-16.82-48.66-16.82-33.13 0-80.83 14.82-82.68 15.68l-7.09 2.15 6.1 5.55c18.29 18.72-1.54 108.95-10.07 142.49-.92 1.85-47.45 180.83-47.45 266.36 0 71.76 39.29 107.33 114.58 107.33 35.11 0 86.32-9.49 120.75-39.33 15.03-12.99 21.65-31.56 17.67-51.21-2.15-14.1-9.14-25.16-9.14-25.71l-2.47-5.21-4.4 4.1c-.62 0-16.11 15.24-47.06 25.71-11.67 3.42-20.85 5.76-30.33 5.76-9.95 0-18.33-4.1-26.18-10.72-17.43-17.89-6.19-81.79-2.46-102.33 5.85-32.45 20.17-92.84 23.28-107.96 5.42 0 16.78-.22 31.35-.22 12.5 0 23.19.22 33.66.22 64.79 1.23 82.93-49.12 83.57-75.72v-6.66z"/></g></g></svg>