<?xml version="1.0" encoding="UTF-8"?>
<!-- Generator: visioncortex VTracer 0.6.3 -->
<svg version="1.1" xmlns="http://www.w3.org/2000/svg" width="1280" height="484">
<path d="M0 0 C1.44 -0 2.89 -0.01 4.33 -0.02 C8.26 -0.04 12.19 -0.03 16.12 -0.01 C20.38 -0.01 24.63 -0.02 28.88 -0.03 C37.2 -0.05 45.51 -0.04 53.83 -0.03 C60.59 -0.02 67.35 -0.02 74.11 -0.03 C75.07 -0.03 76.04 -0.03 77.03 -0.03 C78.99 -0.03 80.95 -0.03 82.91 -0.03 C101.25 -0.04 119.59 -0.03 137.93 -0.01 C153.65 0.01 169.38 0 185.11 -0.01 C203.39 -0.03 221.67 -0.04 239.95 -0.03 C241.9 -0.03 243.85 -0.03 245.8 -0.03 C246.76 -0.03 247.72 -0.03 248.71 -0.03 C255.46 -0.02 262.21 -0.03 268.96 -0.04 C277.19 -0.05 285.42 -0.05 293.65 -0.02 C297.84 -0.01 302.04 -0.01 306.23 -0.02 C310.08 -0.03 313.92 -0.03 317.77 -0.01 C319.81 -0 321.85 -0.01 323.89 -0.03 C331.55 0.04 337.4 1.09 344.25 4.51 C345.62 5.13 346.98 5.75 348.34 6.37 C371.25 17.45 388.65 34.15 398.26 58 C402.63 70.89 401.4 85.68 401.38 99.13 C401.39 101.08 401.39 103.03 401.39 104.98 C401.39 110.26 401.39 115.55 401.39 120.84 C401.39 125.32 401.39 129.81 401.39 134.29 C401.4 148.76 401.39 163.24 401.38 177.71 C401.38 181.44 401.38 185.17 401.38 188.9 C401.36 221.59 401.32 254.28 401.27 286.98 C401.26 293.92 401.25 300.87 401.24 307.82 C401.23 325.59 401.19 343.37 401.1 361.14 C401.08 366.01 401.06 370.88 401.06 375.75 C401.06 381.31 401.03 386.88 400.98 392.44 C400.97 394.38 400.96 396.33 400.97 398.28 C401.01 420.2 395 438.8 380.25 455.51 C378.07 456.74 378.07 456.74 376.25 457.51 C374.74 459.3 374.74 459.3 373.25 461.51 C364.09 473.37 349.63 480.87 335.25 484.51 C330.43 485.04 325.65 485.05 320.79 485.02 C319.37 485.03 317.94 485.04 316.51 485.04 C312.63 485.06 308.74 485.06 304.86 485.05 C300.66 485.04 296.45 485.05 292.25 485.07 C284.03 485.09 275.81 485.09 267.59 485.08 C260.9 485.07 254.21 485.08 247.52 485.08 C246.57 485.08 245.62 485.08 244.63 485.08 C242.7 485.09 240.76 485.09 238.82 485.09 C220.66 485.11 202.51 485.1 184.35 485.08 C167.77 485.07 151.19 485.08 134.61 485.11 C117.56 485.14 100.5 485.15 83.45 485.14 C81.52 485.14 79.59 485.14 77.66 485.14 C76.7 485.14 75.75 485.14 74.78 485.14 C68.1 485.13 61.43 485.14 54.76 485.16 C46.62 485.18 38.48 485.18 30.34 485.15 C26.19 485.14 22.04 485.14 17.89 485.16 C-9.01 485.27 -32.07 482.44 -52.75 463.51 C-53.29 463.02 -53.83 462.52 -54.38 462.02 C-68.86 448.65 -81.67 431.93 -82.93 411.46 C-83.01 407.82 -83.03 404.19 -83.02 400.56 C-83.02 399.15 -83.03 397.74 -83.04 396.34 C-83.05 392.49 -83.05 388.65 -83.05 384.8 C-83.05 380.64 -83.07 376.49 -83.08 372.33 C-83.1 363.25 -83.11 354.17 -83.11 345.1 C-83.12 339.42 -83.12 333.74 -83.13 328.07 C-83.15 312.34 -83.17 296.61 -83.17 280.88 C-83.17 279.87 -83.17 278.86 -83.17 277.83 C-83.17 275.79 -83.17 273.75 -83.17 271.71 C-83.17 270.7 -83.17 269.69 -83.17 268.64 C-83.17 267.63 -83.17 266.62 -83.17 265.57 C-83.18 249.17 -83.2 232.76 -83.24 216.35 C-83.28 199.49 -83.3 182.62 -83.3 165.75 C-83.3 156.29 -83.31 146.83 -83.34 137.37 C-83.36 129.31 -83.37 121.25 -83.35 113.19 C-83.34 109.09 -83.35 104.98 -83.37 100.88 C-83.53 69.27 -83.53 69.27 -77.75 55.51 C-77.37 54.6 -77 53.7 -76.61 52.77 C-75.74 50.76 -74.79 48.86 -73.75 46.95 C-73.4 46.29 -73.06 45.63 -72.71 44.95 C-68.91 37.77 -65.3 31.28 -58.98 26.04 C-58.34 25.52 -57.71 24.99 -57.06 24.45 C-56.46 23.96 -55.85 23.47 -55.23 22.97 C-53.48 21.47 -53.48 21.47 -52.75 18.51 C-36.87 6.97 -19.72 -0.13 0 0 Z M-25.75 62.51 C-30.38 68.82 -33.99 75.24 -34 83.19 C-34 84.33 -34.01 85.47 -34.01 86.64 C-34.01 87.89 -34 89.13 -34 90.42 C-34 91.76 -34 93.1 -34.01 94.44 C-34.02 98.13 -34.01 101.82 -34.01 105.5 C-34 109.48 -34.01 113.46 -34.01 117.43 C-34.02 125.22 -34.02 133.01 -34.02 140.8 C-34.01 147.14 -34.01 153.47 -34.01 159.8 C-34.01 160.71 -34.01 161.61 -34.01 162.54 C-34.01 164.37 -34.02 166.2 -34.02 168.03 C-34.02 185.2 -34.02 202.38 -34 219.56 C-34 234.29 -34 249.02 -34.01 263.75 C-34.02 280.85 -34.02 297.96 -34.01 315.07 C-34.01 316.89 -34.01 318.72 -34.01 320.54 C-34.01 321.44 -34.01 322.34 -34.01 323.26 C-34.01 329.59 -34.01 335.91 -34.02 342.23 C-34.02 349.94 -34.02 357.65 -34.01 365.36 C-34.01 369.29 -34 373.23 -34.01 377.16 C-34.02 380.76 -34.01 384.37 -34 387.97 C-34 389.88 -34.01 391.8 -34.01 393.71 C-33.96 405.59 -32.78 414.4 -24.75 423.51 C-10.71 436.89 6.61 434.78 24.76 434.86 C27.54 434.87 30.32 434.9 33.1 434.94 C37.13 435 41.17 435.02 45.2 435.03 C46.43 435.05 47.66 435.08 48.93 435.1 C60.02 435.07 68.98 431.95 77.54 424.84 C79.25 423.51 79.25 423.51 81.25 422.54 C83.55 421.36 85.06 419.97 86.88 418.13 C87.47 417.55 88.06 416.96 88.67 416.36 C90.3 414.45 91.19 412.77 92.25 410.51 C95.66 404.68 95.66 404.68 97.33 401.9 C105.19 388.47 104.3 368.81 100.63 354.01 C96.43 341.29 89.13 332.23 80.25 322.51 C79.7 321.89 79.14 321.28 78.56 320.65 C70.06 311.32 61.21 302.37 52.22 293.51 C47.97 289.3 43.91 285.03 40.01 280.49 C36.76 276.83 33.24 273.43 29.75 270.01 C24.9 265.24 20.2 260.42 15.76 255.25 C14.56 253.86 13.32 252.5 12.07 251.15 C11.52 250.55 10.96 249.94 10.38 249.32 C9.8 248.71 9.23 248.1 8.64 247.46 C6.97 245.1 6.47 243.39 6.25 240.51 C9.02 236.45 12.23 233.62 16.01 230.49 C19.18 227.69 22.19 224.73 25.19 221.76 C25.78 221.18 26.38 220.6 26.99 220 C28.45 218.54 29.86 217.03 31.25 215.51 C31.25 214.85 31.25 214.19 31.25 213.51 C32.79 212.18 32.79 212.18 34.88 210.7 C38.47 208.08 41.95 205.48 45.25 202.51 C45.25 201.85 45.25 201.19 45.25 200.51 C46.91 199.29 48.57 198.09 50.25 196.92 C52.18 195.56 54.01 194.14 55.82 192.63 C56.33 192.2 56.85 191.77 57.38 191.33 C59.01 189.74 60.44 188.13 61.9 186.39 C65.82 181.75 70.13 177.53 74.44 173.26 C75.25 172.46 76.05 171.65 76.89 170.83 C78.37 169.35 79.87 167.87 81.36 166.39 C81.98 165.77 82.61 165.15 83.25 164.51 C84.08 163.69 84.08 163.69 84.93 162.86 C97.65 149.96 107.44 131.5 107.35 113.23 C107.35 112.08 107.35 110.93 107.34 109.74 C107.33 108.55 107.33 107.36 107.32 106.13 C107.31 104.31 107.31 104.31 107.3 102.46 C107.29 99.47 107.28 96.49 107.25 93.51 C106.59 93.51 105.93 93.51 105.25 93.51 C105.1 91.99 105.1 91.99 104.95 90.44 C102.88 78.7 95.49 68.18 86.09 61.14 C72.6 51.8 58.22 47.17 41.82 47.24 C40.86 47.24 39.9 47.24 38.92 47.24 C36.9 47.24 34.89 47.24 32.88 47.25 C29.83 47.26 26.78 47.25 23.73 47.23 C21.76 47.24 19.79 47.24 17.82 47.24 C16.48 47.24 16.48 47.24 15.11 47.23 C-0.18 47.34 -14.81 51.3 -25.75 62.51 Z M146.25 49.51 C147.48 51.68 148.71 53.84 149.94 56.01 C150.31 56.66 150.68 57.31 151.05 57.97 C152.9 61.22 154.79 64.33 156.94 67.38 C168.3 85.37 168.51 112.79 165.06 133.09 C159.59 156.22 145.67 173.17 129.32 189.7 C128.58 190.44 127.85 191.18 127.09 191.95 C126.39 192.64 125.7 193.34 124.98 194.05 C124.36 194.67 123.73 195.29 123.09 195.93 C121.24 197.52 119.48 198.52 117.25 199.51 C117.25 200.17 117.25 200.83 117.25 201.51 C115.82 202.95 115.82 202.95 113.82 204.63 C109.91 207.94 106.11 211.35 102.33 214.81 C100.25 216.51 100.25 216.51 98.37 217.38 C95.12 219.12 92.71 221.73 90.13 224.32 C89.59 224.84 89.05 225.36 88.5 225.9 C85.45 228.94 83.66 231.37 82.25 235.51 C80.7 237.94 78.98 240.19 77.25 242.51 C84.6 251.24 92.29 259.65 100.43 267.65 C102.9 270.16 105.17 272.83 107.47 275.51 C109.89 278.22 112.46 280.74 115.07 283.26 C116.96 285.2 118.74 287.19 120.52 289.24 C124.24 293.52 128.1 297.65 132 301.76 C133.42 303.26 134.83 304.76 136.25 306.27 C138.61 308.78 140.99 311.27 143.39 313.75 C161.11 332.39 169.44 352.67 169.57 378.45 C169.57 379.4 169.58 380.36 169.58 381.35 C169.52 387.83 169.2 394.61 166.25 400.51 C166.13 401.56 166.01 402.62 165.89 403.71 C165.21 407.76 164 410.62 162.13 414.26 C161.82 414.86 161.52 415.46 161.2 416.07 C158.61 421.07 155.63 425.76 152.44 430.4 C151.85 431.44 151.85 431.44 151.25 432.51 C151.58 433.17 151.91 433.83 152.25 434.51 C207.36 434.51 262.47 434.51 319.25 434.51 C314.67 428.29 314.67 428.29 309.71 422.56 C309.09 421.9 308.47 421.23 307.83 420.55 C307.18 419.87 306.52 419.19 305.85 418.48 C305.15 417.75 304.46 417.01 303.74 416.26 C297.18 409.37 290.49 402.62 283.74 395.92 C281.65 393.84 279.56 391.75 277.47 389.67 C273.04 385.26 268.62 380.85 264.19 376.45 C259.02 371.3 253.85 366.15 248.69 361 C246.64 358.96 244.6 356.92 242.55 354.89 C237.12 349.49 231.76 344.11 226.8 338.27 C223.83 334.87 220.59 331.74 217.38 328.57 C216.65 327.85 215.92 327.12 215.17 326.38 C212.87 324.08 210.56 321.8 208.25 319.51 C205.21 316.49 202.17 313.47 199.13 310.45 C198.1 309.43 198.1 309.43 197.05 308.39 C193.16 304.52 189.48 300.53 185.89 296.37 C183.55 293.71 181.08 291.24 178.57 288.76 C178.06 288.26 177.55 287.75 177.03 287.24 C175.44 285.66 173.85 284.08 172.25 282.51 C160.31 270.72 160.31 270.72 154.9 264.38 C151.8 260.86 148.42 257.61 145.07 254.32 C136.74 246.15 136.74 246.15 133.25 241.51 C134.59 237.5 136.21 235.38 139.25 232.51 C140.02 231.56 140.78 230.61 141.57 229.63 C143.97 226.69 146.71 224.37 149.63 221.95 C151.81 220.02 153.48 217.81 155.25 215.51 C157.86 212.7 160.22 210.53 163.44 208.45 C166.35 206.44 166.79 205.53 168.25 202.51 C169.91 201.48 171.57 200.48 173.25 199.51 C174.96 197.88 176.63 196.21 178.25 194.51 C182.72 189.82 182.72 189.82 185.63 188.13 C192.04 184.17 197 177.92 201.8 172.19 C205.51 167.9 209.56 164.04 213.94 160.45 C216.26 158.51 217.53 157.09 219.25 154.51 C221.4 151.29 223.64 149.34 226.67 147 C228.49 145.28 229.15 143.76 230.25 141.51 C232.31 138.64 234.4 135.8 236.53 132.99 C245.13 121.31 245.28 107.52 244.25 93.51 C241.72 79.26 234.18 68.59 222.82 60.01 C218.48 57.07 213.97 54.82 209.19 52.7 C208.54 52.41 207.9 52.12 207.23 51.82 C198.87 48.26 190.86 47.2 181.82 47.24 C180.86 47.24 179.9 47.24 178.91 47.24 C176.91 47.24 174.9 47.24 172.89 47.25 C169.8 47.26 166.72 47.25 163.63 47.23 C161.67 47.24 159.72 47.24 157.76 47.24 C156.83 47.24 155.91 47.23 154.96 47.23 C153.68 47.24 153.68 47.24 152.38 47.25 C151.25 47.25 151.25 47.25 150.1 47.25 C148.01 47.35 148.01 47.35 146.25 49.51 Z M275.25 49.51 C276.4 51.09 277.55 52.68 278.69 54.26 C279.42 55.26 280.14 56.27 280.89 57.3 C282.45 59.41 284.03 61.5 285.65 63.56 C295.74 76.46 298.66 88.9 298.5 105.13 C298.5 106.17 298.49 107.22 298.48 108.29 C298.25 125.69 296.96 144.43 284.16 157.67 C283.22 158.58 283.22 158.58 282.25 159.51 C280.6 161.56 279.23 163.55 277.94 165.86 C276.17 168.65 274.25 170.71 271.88 173.01 C271.13 173.74 270.38 174.47 269.61 175.23 C268.83 175.98 268.05 176.73 267.25 177.51 C264.65 180.1 262.06 182.7 259.5 185.33 C258.56 186.29 257.63 187.24 256.69 188.2 C256.22 188.68 255.75 189.17 255.27 189.67 C252.73 192.24 250.46 193.91 247.25 195.51 C245.87 196.96 244.54 198.46 243.25 200.01 C239.69 204.3 239.69 204.3 237.34 205.42 C233.64 207.35 231.19 210.87 228.5 213.99 C225.39 217.51 222.24 219.97 218.25 222.51 C216.22 224.23 216.22 224.23 214.5 226.01 C213.93 226.58 213.36 227.14 212.77 227.73 C211.2 229.57 210.3 231.33 209.25 233.51 C208.4 234.78 207.53 236.03 206.63 237.26 C206.18 237.87 205.74 238.49 205.28 239.12 C204.94 239.58 204.6 240.04 204.25 240.51 C206.28 244.16 208.47 246.95 211.46 249.87 C212.68 251.08 212.68 251.08 213.93 252.31 C214.78 253.14 215.63 253.97 216.5 254.82 C218.18 256.46 219.85 258.1 221.52 259.75 C222.26 260.47 223 261.19 223.76 261.93 C225.72 263.96 227.56 266.01 229.39 268.15 C233.48 272.85 237.87 277.24 242.3 281.63 C243.79 283.11 245.28 284.59 246.77 286.07 C249.93 289.22 253.09 292.36 256.25 295.51 C259.93 299.16 263.6 302.81 267.26 306.46 C268.72 307.91 270.17 309.35 271.63 310.79 C275.41 314.57 279.16 318.32 282.63 322.38 C287.13 327.63 292.07 332.43 296.97 337.3 C298.76 339.08 300.55 340.86 302.34 342.65 C306.14 346.44 309.95 350.22 313.75 354.01 C318.17 358.4 322.58 362.79 326.99 367.19 C328.75 368.94 330.5 370.68 332.26 372.42 C333.34 373.51 334.43 374.59 335.52 375.68 C336.03 376.19 336.55 376.7 337.08 377.23 C340.52 380.69 343.73 384.28 346.77 388.1 C348.55 389.79 349.9 390 352.25 390.51 C352.28 368.73 352.3 346.96 352.31 325.18 C352.31 315.06 352.32 304.94 352.33 294.82 C352.38 252.13 352.32 209.44 351.78 166.75 C351.77 165.89 351.76 165.02 351.75 164.13 C352.03 120.22 352.03 120.22 349.25 76.51 C348.59 76.51 347.93 76.51 347.25 76.51 C347.07 75.42 347.07 75.42 346.88 74.31 C344.99 65.85 340.5 59.22 333.25 54.51 C320.97 47.89 307.82 47.16 294.14 47.25 C292.03 47.26 289.92 47.25 287.82 47.23 C286.47 47.24 285.12 47.24 283.77 47.24 C282.57 47.24 281.36 47.25 280.12 47.25 C277.12 47.21 277.12 47.21 275.25 49.51 Z M-81.75 72.51 C-80.75 74.51 -80.75 74.51 -80.75 74.51 Z M350.25 84.51 C351.25 86.51 351.25 86.51 351.25 86.51 Z M244.25 91.51 C245.25 93.51 245.25 93.51 245.25 93.51 Z M351.25 95.51 C351.25 106.73 351.25 117.95 351.25 129.51 C351.58 129.51 351.91 129.51 352.25 129.51 C352.25 118.29 352.25 107.07 352.25 95.51 C351.92 95.51 351.59 95.51 351.25 95.51 Z M107.25 97.51 C108.25 99.51 108.25 99.51 108.25 99.51 Z M244.25 113.51 C245.25 115.51 245.25 115.51 245.25 115.51 Z M107.25 119.51 C108.25 121.51 108.25 121.51 108.25 121.51 Z M352.25 177.51 C352.25 189.06 352.25 200.61 352.25 212.51 C352.58 212.51 352.91 212.51 353.25 212.51 C353.25 200.96 353.25 189.41 353.25 177.51 C352.92 177.51 352.59 177.51 352.25 177.51 Z M353.25 275.51 C352.92 314.12 352.59 352.73 352.25 392.51 C352.91 392.84 353.57 393.17 354.25 393.51 C354.25 354.57 354.25 315.63 354.25 275.51 C353.92 275.51 353.59 275.51 353.25 275.51 Z M103.25 368.51 C103.25 373.79 103.25 379.07 103.25 384.51 C103.58 384.51 103.91 384.51 104.25 384.51 C104.25 379.23 104.25 373.95 104.25 368.51 C103.92 368.51 103.59 368.51 103.25 368.51 Z M262.25 434.51 C262.25 434.84 262.25 435.17 262.25 435.51 C274.79 435.51 287.33 435.51 300.25 435.51 C300.25 435.18 300.25 434.85 300.25 434.51 C287.71 434.51 275.17 434.51 262.25 434.51 Z " fill="#00519B" transform="translate(82.74540710449219,-0.5079345703125)"/>
<path d="M0 0 C0.68 -0 1.36 -0.01 2.06 -0.01 C4.36 -0.02 6.66 -0.02 8.96 -0.02 C10.6 -0.03 12.25 -0.03 13.89 -0.04 C18.37 -0.05 22.85 -0.06 27.33 -0.06 C30.14 -0.06 32.94 -0.07 35.75 -0.07 C44.54 -0.08 53.34 -0.09 62.13 -0.1 C72.25 -0.1 82.36 -0.12 92.48 -0.15 C100.31 -0.17 108.15 -0.18 115.98 -0.18 C120.65 -0.18 125.32 -0.19 129.99 -0.21 C174.05 -0.37 213.59 5.37 246.56 37.14 C247.22 37.73 247.88 38.33 248.55 38.94 C265.48 54.66 274.37 78.99 275.78 101.68 C275.9 105.46 275.93 109.23 275.94 113.02 C275.96 114.27 275.98 115.53 276.01 116.83 C276.08 138.57 266.43 159.28 251.44 174.77 C250.94 175.25 250.44 175.73 249.93 176.23 C247.25 178.8 247.25 178.8 246.55 182.29 C247.74 184.47 248.93 185.59 250.87 187.14 C276.55 208.78 292.01 236.43 296.25 269.89 C297.19 282.02 296.82 293.96 295.19 306.02 C295.06 306.95 294.93 307.88 294.8 308.84 C294.04 314.04 292.92 318.42 290.56 323.14 C290.44 324.18 290.32 325.22 290.19 326.28 C289.51 330.45 288.21 334.01 286.5 337.83 C286.19 338.52 285.88 339.22 285.56 339.94 C280.6 350.73 273.75 359.61 265.56 368.14 C264.74 369.04 263.92 369.93 263.07 370.86 C240.2 395.01 206 405.17 173.56 407.14 C167.64 407.28 161.71 407.27 155.79 407.25 C154.01 407.25 152.24 407.25 150.46 407.25 C145.67 407.25 140.89 407.25 136.1 407.24 C131.08 407.24 126.07 407.23 121.05 407.23 C111.57 407.23 102.08 407.22 92.6 407.21 C81.8 407.2 70.99 407.2 60.19 407.19 C37.98 407.18 15.77 407.16 -6.44 407.14 C-7.88 404.26 -7.56 401.8 -7.57 398.59 C-7.57 397.9 -7.57 397.22 -7.57 396.51 C-7.57 394.2 -7.57 391.88 -7.57 389.57 C-7.57 387.9 -7.57 386.23 -7.57 384.57 C-7.58 379.97 -7.57 375.37 -7.57 370.77 C-7.57 365.81 -7.57 360.86 -7.57 355.91 C-7.58 346.2 -7.58 336.48 -7.57 326.77 C-7.57 318.89 -7.57 311 -7.57 303.11 C-7.57 301.99 -7.57 300.87 -7.57 299.71 C-7.57 297.44 -7.57 295.16 -7.57 292.88 C-7.58 271.52 -7.57 250.15 -7.57 228.78 C-7.56 210.42 -7.57 192.07 -7.57 173.71 C-7.58 152.42 -7.58 131.13 -7.57 109.84 C-7.57 107.57 -7.57 105.31 -7.57 103.04 C-7.57 101.92 -7.57 100.81 -7.57 99.66 C-7.57 91.77 -7.57 83.89 -7.58 76 C-7.58 66.4 -7.58 56.8 -7.57 47.2 C-7.57 42.3 -7.57 37.4 -7.57 32.49 C-7.58 28.01 -7.57 23.53 -7.57 19.05 C-7.57 17.42 -7.57 15.79 -7.57 14.16 C-7.57 11.96 -7.57 9.77 -7.57 7.57 C-7.57 6.34 -7.57 5.12 -7.56 3.85 C-7.33 -1.25 -4.49 0.01 0 0 Z M159.56 1.14 C163.56 2.14 163.56 2.14 163.56 2.14 Z M69.56 71.14 C69.56 100.51 69.56 129.88 69.56 160.14 C106.85 160.14 144.14 160.14 182.56 160.14 C183.55 158.16 183.55 158.16 184.56 156.14 C185.47 154.91 186.41 153.71 187.37 152.52 C197.5 139.17 199.96 123.04 197.91 106.67 C197.51 103.82 197.05 100.98 196.56 98.14 C195.9 98.14 195.24 98.14 194.56 98.14 C194.25 96.9 194.25 96.9 193.94 95.64 C190.46 86.81 184.05 80.68 175.51 76.73 C158.61 69.92 141.15 69.98 123.19 70.01 C121.7 70.01 120.2 70.01 118.7 70 C115.61 70 112.51 70.01 109.41 70.01 C105.44 70.02 101.47 70.01 97.49 70.01 C94.42 70 91.35 70 88.28 70.01 C86.81 70.01 85.34 70.01 83.88 70 C81.84 70 79.81 70.01 77.78 70.01 C76.62 70.01 75.47 70.01 74.27 70.01 C71.59 69.96 71.59 69.96 69.56 71.14 Z M198.56 109.14 C199.56 113.14 199.56 113.14 199.56 113.14 Z M198.56 118.14 C198.56 120.12 198.56 122.1 198.56 124.14 C198.89 124.14 199.22 124.14 199.56 124.14 C199.56 122.16 199.56 120.18 199.56 118.14 C199.23 118.14 198.9 118.14 198.56 118.14 Z M197.56 129.14 C198.56 131.14 198.56 131.14 198.56 131.14 Z M69.56 231.14 C69.56 265.79 69.56 300.44 69.56 336.14 C83.69 336.02 97.82 335.89 112.37 335.77 C119 335.71 119 335.71 125.77 335.66 C129.82 335.62 129.82 335.62 133.87 335.58 C135.63 335.56 137.4 335.55 139.17 335.54 C174.04 335.65 174.04 335.65 204.03 319.89 C215.32 308.16 218.95 295.3 218.7 279.38 C218.5 274.61 218.09 269.88 217.56 265.14 C216.9 265.14 216.24 265.14 215.56 265.14 C215.44 264.41 215.32 263.69 215.19 262.94 C213.12 253.75 207.49 245.73 199.94 240.23 C187.59 232.5 174.17 229.98 159.8 230.01 C158.85 230.01 157.89 230.01 156.91 230.01 C153.78 230 150.64 230 147.51 230.01 C145.33 230.01 143.14 230.01 140.96 230 C136.4 230 131.84 230.01 127.27 230.01 C121.41 230.02 115.55 230.01 109.69 230.01 C105.19 230 100.69 230 96.19 230.01 C94.03 230.01 91.87 230.01 89.71 230 C86.7 230 83.68 230.01 80.67 230.01 C79.77 230.01 78.88 230.01 77.95 230 C73.62 229.89 73.62 229.89 69.56 231.14 Z M218.56 274.14 C219.56 276.14 219.56 276.14 219.56 276.14 Z M218.56 289.14 C219.56 292.14 219.56 292.14 219.56 292.14 Z M157.56 335.14 C157.56 335.47 157.56 335.8 157.56 336.14 C159.21 336.14 160.86 336.14 162.56 336.14 C162.56 335.81 162.56 335.48 162.56 335.14 C160.91 335.14 159.26 335.14 157.56 335.14 Z " fill="#00519B" transform="translate(537.4395294189453,36.85955810546875)"/>
<path d="M0 0 C0.73 -0 1.46 -0.01 2.22 -0.01 C4.69 -0.02 7.16 -0.03 9.63 -0.03 C11.39 -0.04 13.15 -0.04 14.92 -0.05 C20.74 -0.07 26.56 -0.08 32.38 -0.09 C34.39 -0.1 36.4 -0.1 38.4 -0.1 C47.86 -0.12 57.31 -0.14 66.77 -0.15 C77.64 -0.15 88.51 -0.18 99.38 -0.22 C107.8 -0.25 116.22 -0.27 124.64 -0.27 C129.66 -0.27 134.68 -0.28 139.7 -0.31 C188.71 -0.54 188.71 -0.54 208.09 7.15 C209.57 7.51 211.06 7.85 212.56 8.12 C217.2 9.09 221.34 10.69 225.66 12.65 C226.82 13.17 226.82 13.17 228 13.71 C241.91 20.18 253.22 28.38 264.09 39.15 C264.84 39.83 265.59 40.52 266.36 41.23 C283.94 57.67 293.47 82.59 296.09 106.15 C296.2 107.08 296.31 108.01 296.43 108.98 C299.75 142.09 293.85 178.01 272.91 204.71 C269.19 209.14 265.35 213.15 260.84 216.77 C257.89 218.92 257.89 218.92 257.09 222.15 C244.4 234.72 221.5 249.36 203.11 250.3 C202.44 250.25 201.78 250.2 201.09 250.15 C203.39 255.11 206.22 259.36 209.41 263.77 C210.49 265.28 211.57 266.8 212.64 268.31 C213.21 269.1 213.77 269.89 214.35 270.7 C217.29 274.83 220.19 278.99 223.09 283.15 C227.41 289.32 231.74 295.49 236.09 301.65 C241.05 308.65 245.97 315.68 250.88 322.71 C254.61 328.03 258.34 333.34 262.09 338.65 C266.44 344.8 270.77 350.97 275.09 357.15 C280.9 365.45 286.74 373.74 292.59 382.01 C294.19 384.29 295.8 386.57 297.4 388.84 C297.95 389.62 298.49 390.39 299.05 391.18 C300.09 392.66 301.13 394.14 302.17 395.62 C302.64 396.28 303.11 396.95 303.6 397.64 C304.03 398.25 304.47 398.87 304.91 399.51 C305.89 400.86 306.91 402.19 307.93 403.5 C309.09 405.15 309.09 405.15 309.09 407.15 C297.5 407.38 285.9 407.56 274.3 407.67 C268.92 407.72 263.53 407.79 258.15 407.9 C252.95 408.01 247.75 408.07 242.55 408.1 C240.57 408.11 238.59 408.15 236.61 408.2 C221.09 408.61 221.09 408.61 216.15 404.99 C214.09 402.46 212.58 400.04 211.09 397.15 C210.21 395.88 209.32 394.62 208.4 393.37 C207.58 392.18 206.78 390.98 205.97 389.77 C205.03 388.39 204.09 387 203.14 385.62 C202.65 384.9 202.16 384.17 201.65 383.43 C198.85 379.33 196 375.27 193.16 371.21 C192.56 370.36 191.97 369.51 191.36 368.64 C187.13 362.61 182.88 356.59 178.63 350.58 C174.77 345.11 170.93 339.63 167.09 334.15 C160.79 325.13 154.45 316.13 148.09 307.15 C146.13 304.38 144.18 301.61 142.22 298.83 C141.73 298.15 141.24 297.46 140.74 296.75 C136.16 290.25 131.6 283.73 127.05 277.21 C123.24 271.75 119.36 266.36 115.35 261.05 C114.09 259.15 114.09 259.15 114.09 257.15 C108.13 257.12 102.17 257.1 96.2 257.09 C94.17 257.09 92.14 257.08 90.11 257.07 C87.2 257.06 84.29 257.05 81.38 257.05 C80.47 257.04 79.55 257.04 78.61 257.03 C76.44 257.03 74.27 257.09 72.09 257.15 C70.32 258.92 70.95 261.52 70.94 263.92 C70.93 265.18 70.92 266.43 70.91 267.73 C70.9 269.13 70.89 270.53 70.89 271.94 C70.88 273.41 70.87 274.87 70.86 276.34 C70.83 280.34 70.81 284.34 70.79 288.34 C70.77 292.51 70.74 296.68 70.71 300.86 C70.66 308.76 70.62 316.67 70.58 324.58 C70.52 335.26 70.45 345.95 70.39 356.63 C70.28 373.47 70.19 390.31 70.09 407.15 C44.68 407.15 19.27 407.15 -6.91 407.15 C-8.34 404.27 -8.03 401.81 -8.03 398.59 C-8.03 397.91 -8.03 397.23 -8.04 396.52 C-8.04 394.21 -8.04 391.89 -8.03 389.58 C-8.03 387.91 -8.04 386.24 -8.04 384.57 C-8.04 379.97 -8.04 375.37 -8.04 370.77 C-8.03 365.82 -8.04 360.87 -8.04 355.91 C-8.05 346.2 -8.04 336.49 -8.04 326.78 C-8.04 318.89 -8.04 311 -8.04 303.11 C-8.04 301.99 -8.04 300.87 -8.04 299.72 C-8.04 297.44 -8.04 295.17 -8.04 292.89 C-8.04 271.52 -8.04 250.15 -8.04 228.79 C-8.03 210.43 -8.03 192.08 -8.04 173.72 C-8.04 152.43 -8.04 131.14 -8.04 109.85 C-8.04 107.58 -8.04 105.31 -8.04 103.05 C-8.04 101.93 -8.04 100.81 -8.04 99.66 C-8.04 91.78 -8.04 83.9 -8.04 76.01 C-8.05 66.41 -8.04 56.81 -8.04 47.21 C-8.04 42.31 -8.04 37.4 -8.04 32.5 C-8.04 28.02 -8.04 23.54 -8.03 19.06 C-8.03 17.43 -8.03 15.8 -8.04 14.17 C-8.04 11.97 -8.04 9.77 -8.03 7.57 C-8.03 6.35 -8.03 5.12 -8.03 3.86 C-7.79 -1.38 -4.57 0.01 0 0 Z M172.09 1.15 C176.09 2.15 176.09 2.15 176.09 2.15 Z M70.09 72.15 C69.8 74.22 69.8 74.22 69.85 76.64 C69.85 77.58 69.85 78.53 69.85 79.5 C69.85 80.54 69.86 81.58 69.87 82.66 C69.87 83.75 69.87 84.84 69.87 85.97 C69.87 89.59 69.88 93.22 69.9 96.84 C69.9 99.35 69.91 101.86 69.91 104.37 C69.91 110.3 69.93 116.24 69.95 122.17 C69.97 129.59 69.99 137.01 70 144.43 C70.02 157.67 70.05 170.91 70.09 184.15 C82.46 184.24 94.84 184.31 107.21 184.35 C112.95 184.38 118.7 184.4 124.44 184.45 C130 184.49 135.56 184.52 141.11 184.53 C143.22 184.53 145.33 184.55 147.44 184.57 C164.5 184.74 179.3 183.56 194.09 174.15 C195.21 173.47 196.32 172.79 197.47 172.08 C208.2 164.17 214.13 152.28 216.63 139.36 C217.09 136.15 217.21 133.12 217.19 129.87 C217.19 128.72 217.19 127.57 217.18 126.38 C217.17 125.19 217.16 124 217.16 122.77 C217.15 120.95 217.15 120.95 217.14 119.1 C217.13 116.11 217.11 113.13 217.09 110.15 C216.43 110.15 215.77 110.15 215.09 110.15 C214.99 109.27 214.88 108.39 214.77 107.49 C212.58 96.61 204.93 87.9 195.96 81.88 C176.63 70.19 156.7 69.99 134.86 69.98 C133.05 69.98 131.23 69.97 129.42 69.97 C125.65 69.96 121.88 69.96 118.11 69.96 C113.28 69.96 108.44 69.95 103.61 69.93 C99.88 69.92 96.15 69.92 92.42 69.92 C90.63 69.92 88.85 69.91 87.06 69.91 C84.58 69.9 82.11 69.9 79.63 69.9 C78.89 69.9 78.15 69.89 77.39 69.89 C73.29 69.79 73.29 69.79 70.09 72.15 Z M218.09 121.15 C218.09 124.12 218.09 127.09 218.09 130.15 C218.42 130.15 218.75 130.15 219.09 130.15 C219.09 127.18 219.09 124.21 219.09 121.15 C218.76 121.15 218.43 121.15 218.09 121.15 Z M217.09 136.15 C218.09 138.15 218.09 138.15 218.09 138.15 Z M71.09 185.15 C71.09 185.48 71.09 185.81 71.09 186.15 C99.8 186.15 128.51 186.15 158.09 186.15 C158.09 185.82 158.09 185.49 158.09 185.15 C129.38 185.15 100.67 185.15 71.09 185.15 Z " fill="#00519B" transform="translate(866.9061431884766,36.85282897949219)"/>
<path d="M0 0 C26.07 0 52.14 0 79 0 C79 133.98 79 267.96 79 406 C52.93 406 26.86 406 0 406 C0 272.02 0 138.04 0 0 Z " fill="#00529C" transform="translate(1201,38)"/>
<path d="M0 0 C0.33 0 0.66 0 1 0 C1 132.66 1 265.32 1 402 C0.67 402 0.34 402 0 402 C0 269.34 0 136.68 0 0 Z " fill="#00529C" transform="translate(1199,38)"/>
<path d="M0 0 C54.12 0 108.24 0 164 0 C164 0.33 164 0.66 164 1 C109.88 1 55.76 1 0 1 C0 0.67 0 0.34 0 0 Z " fill="#00529C" transform="translate(861,36)"/>
<path d="M0 0 C50.16 0 100.32 0 152 0 C152 0.33 152 0.66 152 1 C101.84 1 51.68 1 0 1 C0 0.67 0 0.34 0 0 Z " fill="#00529C" transform="translate(532,36)"/>
<path d="M0 0 C24.75 0 49.5 0 75 0 C75 0.33 75 0.66 75 1 C50.25 1 25.5 1 0 1 C0 0.67 0 0.34 0 0 Z " fill="#00529C" transform="translate(1201,36)"/>
<path d="M0 0 C0.33 0.66 0.66 1.32 1 2 C0.34 1.67 -0.32 1.34 -1 1 C-0.67 0.67 -0.34 0.34 0 0 Z " fill="#001B35" transform="translate(169,229)"/>
<path d="M0 0 C3 1 3 1 3 1 Z " fill="#00529C" transform="translate(1277,36)"/>
<path d="" fill="#000002" transform="translate(0,0)"/>
<path d="" fill="#000002" transform="translate(0,0)"/>
<path d="" fill="#000002" transform="translate(0,0)"/>
<path d="" fill="#000002" transform="translate(0,0)"/>
<path d="" fill="#000002" transform="translate(0,0)"/>
<path d="" fill="#000002" transform="translate(0,0)"/>
<path d="" fill="#00529C" transform="translate(0,0)"/>
<path d="" fill="#00529C" transform="translate(0,0)"/>
<path d="" fill="#00529C" transform="translate(0,0)"/>
<path d="" fill="#00529C" transform="translate(0,0)"/>
<path d="" fill="#00529C" transform="translate(0,0)"/>
<path d="" fill="#00529C" transform="translate(0,0)"/>
<path d="" fill="#00529C" transform="translate(0,0)"/>
<path d="" fill="#00529C" transform="translate(0,0)"/>
<path d="" fill="#00529C" transform="translate(0,0)"/>
<path d="" fill="#000002" transform="translate(0,0)"/>
<path d="" fill="#000002" transform="translate(0,0)"/>
<path d="" fill="#000002" transform="translate(0,0)"/>
<path d="" fill="#000002" transform="translate(0,0)"/>
<path d="" fill="#000002" transform="translate(0,0)"/>
<path d="" fill="#000002" transform="translate(0,0)"/>
<path d="" fill="#000002" transform="translate(0,0)"/>
<path d="" fill="#000002" transform="translate(0,0)"/>
<path d="" fill="#00529C" transform="translate(0,0)"/>
<path d="" fill="#00529C" transform="translate(0,0)"/>
<path d="" fill="#00529C" transform="translate(0,0)"/>
<path d="" fill="#00529C" transform="translate(0,0)"/>
<path d="" fill="#000002" transform="translate(0,0)"/>
<path d="" fill="#00529C" transform="translate(0,0)"/>
<path d="" fill="#000002" transform="translate(0,0)"/>
<path d="" fill="#000002" transform="translate(0,0)"/>
<path d="" fill="#00529C" transform="translate(0,0)"/>
<path d="" fill="#000002" transform="translate(0,0)"/>
<path d="" fill="#000002" transform="translate(0,0)"/>
<path d="" fill="#00529C" transform="translate(0,0)"/>
<path d="" fill="#000002" transform="translate(0,0)"/>
<path d="" fill="#000002" transform="translate(0,0)"/>
<path d="" fill="#00529C" transform="translate(0,0)"/>
<path d="" fill="#000002" transform="translate(0,0)"/>
<path d="" fill="#000002" transform="translate(0,0)"/>
<path d="" fill="#00529C" transform="translate(0,0)"/>
<path d="" fill="#000002" transform="translate(0,0)"/>
<path d="" fill="#00529C" transform="translate(0,0)"/>
<path d="" fill="#000002" transform="translate(0,0)"/>
<path d="" fill="#00529C" transform="translate(0,0)"/>
<path d="" fill="#000002" transform="translate(0,0)"/>
<path d="" fill="#00529C" transform="translate(0,0)"/>
<path d="" fill="#000002" transform="translate(0,0)"/>
<path d="" fill="#00529C" transform="translate(0,0)"/>
<path d="" fill="#000002" transform="translate(0,0)"/>
<path d="" fill="#00529C" transform="translate(0,0)"/>
<path d="" fill="#000002" transform="translate(0,0)"/>
<path d="" fill="#00529C" transform="translate(0,0)"/>
<path d="" fill="#000002" transform="translate(0,0)"/>
<path d="" fill="#00529C" transform="translate(0,0)"/>
<path d="" fill="#000002" transform="translate(0,0)"/>
<path d="" fill="#00529C" transform="translate(0,0)"/>
<path d="" fill="#00529C" transform="translate(0,0)"/>
<path d="" fill="#000002" transform="translate(0,0)"/>
<path d="" fill="#00529C" transform="translate(0,0)"/>
<path d="" fill="#00529C" transform="translate(0,0)"/>
<path d="" fill="#000002" transform="translate(0,0)"/>
<path d="" fill="#00529C" transform="translate(0,0)"/>
<path d="" fill="#00529C" transform="translate(0,0)"/>
<path d="" fill="#000002" transform="translate(0,0)"/>
<path d="" fill="#00529C" transform="translate(0,0)"/>
<path d="" fill="#00529C" transform="translate(0,0)"/>
<path d="" fill="#000002" transform="translate(0,0)"/>
<path d="" fill="#00529C" transform="translate(0,0)"/>
<path d="" fill="#00529C" transform="translate(0,0)"/>
<path d="" fill="#00529C" transform="translate(0,0)"/>
<path d="" fill="#00529C" transform="translate(0,0)"/>
<path d="" fill="#00529C" transform="translate(0,0)"/>
<path d="" fill="#00529C" transform="translate(0,0)"/>
<path d="" fill="#000002" transform="translate(0,0)"/>
<path d="" fill="#000002" transform="translate(0,0)"/>
<path d="" fill="#000002" transform="translate(0,0)"/>
<path d="" fill="#000002" transform="translate(0,0)"/>
<path d="" fill="#00529C" transform="translate(0,0)"/>
<path d="" fill="#00529C" transform="translate(0,0)"/>
<path d="" fill="#000002" transform="translate(0,0)"/>
<path d="" fill="#00529C" transform="translate(0,0)"/>
<path d="" fill="#00529C" transform="translate(0,0)"/>
<path d="" fill="#00529C" transform="translate(0,0)"/>
<path d="" fill="#00529C" transform="translate(0,0)"/>
<path d="" fill="#00529C" transform="translate(0,0)"/>
<path d="" fill="#00529C" transform="translate(0,0)"/>
<path d="" fill="#00529C" transform="translate(0,0)"/>
<path d="" fill="#00529C" transform="translate(0,0)"/>
<path d="" fill="#00529C" transform="translate(0,0)"/>
<path d="" fill="#00529C" transform="translate(0,0)"/>
<path d="" fill="#00529C" transform="translate(0,0)"/>
<path d="" fill="#000002" transform="translate(0,0)"/>
<path d="" fill="#000002" transform="translate(0,0)"/>
<path d="" fill="#000002" transform="translate(0,0)"/>
<path d="" fill="#000002" transform="translate(0,0)"/>
<path d="" fill="#00529C" transform="translate(0,0)"/>
<path d="" fill="#000002" transform="translate(0,0)"/>
<path d="" fill="#00529C" transform="translate(0,0)"/>
<path d="" fill="#000002" transform="translate(0,0)"/>
<path d="" fill="#00529C" transform="translate(0,0)"/>
<path d="" fill="#000002" transform="translate(0,0)"/>
<path d="" fill="#00529C" transform="translate(0,0)"/>
<path d="" fill="#00529C" transform="translate(0,0)"/>
<path d="" fill="#00529C" transform="translate(0,0)"/>
<path d="" fill="#00529C" transform="translate(0,0)"/>
<path d="" fill="#00529C" transform="translate(0,0)"/>
<path d="" fill="#00529C" transform="translate(0,0)"/>
<path d="" fill="#00529C" transform="translate(0,0)"/>
<path d="" fill="#00529C" transform="translate(0,0)"/>
<path d="" fill="#00529C" transform="translate(0,0)"/>
<path d="" fill="#00529C" transform="translate(0,0)"/>
<path d="" fill="#00529C" transform="translate(0,0)"/>
<path d="" fill="#00529C" transform="translate(0,0)"/>
<path d="" fill="#00529C" transform="translate(0,0)"/>
<path d="" fill="#00529C" transform="translate(0,0)"/>
<path d="" fill="#00529C" transform="translate(0,0)"/>
<path d="" fill="#00529C" transform="translate(0,0)"/>
<path d="" fill="#00529C" transform="translate(0,0)"/>
<path d="" fill="#00529C" transform="translate(0,0)"/>
<path d="" fill="#000002" transform="translate(0,0)"/>
<path d="" fill="#00529C" transform="translate(0,0)"/>
<path d="" fill="#000002" transform="translate(0,0)"/>
<path d="" fill="#00529C" transform="translate(0,0)"/>
<path d="" fill="#00529C" transform="translate(0,0)"/>
<path d="" fill="#00529C" transform="translate(0,0)"/>
<path d="" fill="#00529C" transform="translate(0,0)"/>
<path d="" fill="#000002" transform="translate(0,0)"/>
<path d="" fill="#00529C" transform="translate(0,0)"/>
<path d="" fill="#000002" transform="translate(0,0)"/>
<path d="" fill="#00529C" transform="translate(0,0)"/>
<path d="" fill="#00529C" transform="translate(0,0)"/>
<path d="" fill="#00529C" transform="translate(0,0)"/>
<path d="" fill="#00529C" transform="translate(0,0)"/>
<path d="" fill="#00529C" transform="translate(0,0)"/>
<path d="" fill="#00529C" transform="translate(0,0)"/>
<path d="" fill="#00529C" transform="translate(0,0)"/>
<path d="" fill="#00529C" transform="translate(0,0)"/>
<path d="" fill="#00529C" transform="translate(0,0)"/>
<path d="" fill="#00529C" transform="translate(0,0)"/>
<path d="" fill="#00529C" transform="translate(0,0)"/>
<path d="" fill="#00529C" transform="translate(0,0)"/>
<path d="" fill="#00529C" transform="translate(0,0)"/>
<path d="" fill="#00529C" transform="translate(0,0)"/>
<path d="" fill="#00529C" transform="translate(0,0)"/>
</svg>
