<svg clip-rule="evenodd" fill-rule="evenodd" height="2.41063in" image-rendering="optimizeQuality" shape-rendering="geometricPrecision" text-rendering="geometricPrecision" viewBox="0 0 8268 2411" width="8.26772in" xmlns="http://www.w3.org/2000/svg"><path d="m1090 4c-399 38-722 249-918 575-127 212-187 462-169 720 46 630 587 1163 1279 1108 622-50 1134-609 1082-1296-19-252-107-459-247-647-64-85-76-86-142-155-83-86-257-185-368-229-148-59-338-93-517-76z" fill="#108de8"/><path d="m498 854c-15 44-6 529-6 619 0 97-19 128 133 180 404 138 803-330 1204-99 18 11 41 33 46-2l1-625c0-67 6-88-39-119-359-250-747 178-1111 130-135-18-191-87-228-84z" fill="#fff"/><g fill="#108de8"><path d="m3269 1816c157 11 340-110 405-180 224-243 229-594 4-848-84-94-281-199-407-184h-453v1211zm-196-262c33 6 170 4 208 0 309-28 419-451 159-629-44-29-92-53-155-60-34-3-182-6-212 0z"/><path d="m7237 1819 258-1v-261l512 1 1 260h258c0-145 0-288 0-432 0-130 11-292-21-409-54-199-243-376-492-377-252-1-435 175-493 371-34 116-23 283-23 410 0 146-1 292 0 438zm258-524h513c1-112 13-221-37-306-36-62-112-126-218-126-109-1-181 61-220 124-51 84-39 199-38 308z"/><path d="m4290 1818h256c1-54-7-221 3-261l509 1 2 260 257 1c-1-145 0-289 0-433 0-124 12-300-21-410-147-498-832-501-984-5-35 113-23 285-23 410 0 145-3 293 1 437zm257-523h513c1-110 13-221-37-306-93-157-327-180-438-1-51 81-40 200-38 307z"/><path d="m5769 1077-3 180c0 152-8 435 0 558h252c6-86-9-701 7-721 0-120 125-231 251-231 77-1 134 31 175 68 32 30 81 96 80 164 12 6 3 648 6 720h253l-2-735c6-57-29-146-51-191-187-380-722-385-914-7-23 44-59 136-54 195z"/></g><path d="m3269 1816-451-1v-1211h453c-8-12-197-5-223-5-66 0-170-6-232 1-5 19-8 1188 0 1219 42 5 333 1 424 1l26-2s2-1 3-2z" fill="#79bbe7"/><path d="m6531 1095c3 99-5 689 4 724l257 1c7-28 2-488 2-558 0-33 9-164-6-182l2 735h-253c-3-72 6-714-6-720z" fill="#79bbe7"/><path d="m6025 1094c-16 20-1 635-7 721h-252c-8-123 0-406 0-558l3-180c-14 6-8 328-8 368 0 59-7 341 3 374l257 1z" fill="#79bbe7"/></svg>