<svg clip-rule="evenodd" fill-rule="evenodd" height="11in" image-rendering="optimizeQuality" shape-rendering="geometricPrecision" text-rendering="geometricPrecision" viewBox="0 0 8500 11000" width="8.5in" xmlns="http://www.w3.org/2000/svg"><g fill="#00ace7" fill-rule="nonzero"><path d="m1512 6230c226-130 367-353 367-596 0-540-546-734-546-734-100-57-224-87-361-87-10 0-28 0-38 0 139-101 320-163 503-163 427 0 749 391 749 757 0 426-312 757-674 823zm-274-1c-277-53-505-256-603-496 97 92 235 155 412 155 282 0 550-209 550-519 0-152-55-251-55-251 117 115 192 277 192 474 0 278-215 537-496 637zm-248 44c-331 0-681-310-681-695 0-189 61-376 216-503-28 56-47 122-54 202-4 29-6 58-6 90 0 416 236 761 606 900-27 4-54 6-81 6zm32-1348c241 0 427 229 427 433 0 276-175 461-418 461-219 0-414-196-414-474 0-229 177-420 405-420zm343-364c-225 0-544 93-733 321-298 126-516 407-516 715 0 477 421 761 927 761 84 0 163-17 237-36 55 9 112 13 170 13 478 0 900-374 900-864 0-504-416-910-985-910z"/><path d="m3139 5959c0 153-101 240-316 247v233c244 0 554-128 554-480v-1145h-238z"/><path d="m3821 5285c16-142 79-268 235-268 157 0 220 126 236 268zm719 22c0-182-103-515-484-515-360 0-484 292-484 595s126 595 540 595c113 0 256-26 419-138l-121-182c-103 63-201 95-298 95-183 0-269-121-289-246h500c148 0 217-57 217-204z"/><path d="m5186 4792c-296 0-448 236-448 236v941h238v-865s73-87 210-87c150 0 233 119 233 225v727h238v-727c0-218-160-450-471-450z"/><path d="m5920 5969h237v-1164h-237z"/><path d="m7954 5264h2c-81-22-186-60-186-141 0-58 63-106 181-106 119 0 254 52 305 76l76-206c-78-39-237-95-381-95-206 0-421 102-421 331 0 212 193 318 383 364 104 21 233 63 233 145 0 86-105 125-208 125-101 0-240-63-345-117l-92 215c101 49 249 123 437 127 217 0 446-99 446-350 0-243-251-325-430-368z"/><path d="m7109 5532c0 106-83 224-232 225-149-1-232-119-232-225v-727h-237v727c0 218 158 449 468 450h2c310-1 468-232 468-450v-727h-237z"/></g></svg>