<svg height="5.11811in" style="enable-background:new 0 0 1000 464.6231995;shape-rendering:geometricPrecision;text-rendering:geometricPrecision;image-rendering:optimizeQuality;fill-rule:evenodd;clip-rule:evenodd" viewBox="0 0 5553 5118" width="5.55283in" xmlns="http://www.w3.org/2000/svg"><path d="m185 5018c-106-55-189-103-185-107 14-13 519-121 872-186 763-140 1671-252 2575-318 372-27 1719-28 1953-1l153 18-173 2c-306 5-1009 54-1560 109-1042 105-2201 298-3039 506-172 42-333 77-358 77s-132-45-238-100zm1457-1049c-15-43 50-63 79-75 128-55 218-145 249-247 14-49 58-326 98-616 39-289 74-513 78-527 3-9 11-44 52-48 106-1 185 1 294 1 60-6 48 60 43 102-4 53-19 156-35 281-21 152-51 381-68 507-38 284-59 371-124 517-78 174-196 275-411 347-44 13-169 56-182 18-28-90-48-168-73-260zm2472-95c-143-58-137-282 14-373 95-59 229-49 298 20 169 169-80 446-312 353zm-1084-134c-422-72-419-575-324-862 118-333 406-429 643-438 200-6 477 31 547 74 19 12 10 127-44 554-37 297-78 552-90 567-67 81-514 145-732 105zm368-398c45-168 64-320 97-498-4-61-108-62-134-62-137 0-218 77-261 248-59 234 3 365 172 365 53-5 109-2 126-53zm-3082 263c115-282 578-1290 689-1499 21-52 76-63 114-66 109-5 203-4 299-3 99 1 100 35 113 108 15 73 207 1221 251 1497 5 46 17 60-43 60-82 0-281 11-348 6-22-3-36-17-39-33-7-30-13-80-18-133l-12-137h-248-247l-54 132c-20 46-41 93-56 123-11 29-28 42-52 47-61-1-275 7-356 0-40-18-4-77 7-102zm962-583c-7-74-54-456-66-513-2-6-4-4-7 0-29 44-187 432-214 522-3 12 5 17 16 16 41-3 205-6 254-8 15-1 16-6 17-17zm2855 186c7-50 21-185 31-301 11-116 28-297 39-402 7-80 14-158 17-199 6-36 50-41 79-41 97 1 189-5 276 4 41 4 58 13 58 37-39 202-180 897-191 941-9 37-13 48-70 51-69-1-127 2-198 2-40 0-51-12-41-92zm-1955-1033c0-123 79-217 178-256 85-30 181-30 232 28 91 106 31 261-74 342-136 94-334 39-336-114zm2429-259c-30-66-125-274-211-461-87-188-153-354-147-369 5-14 102-134 214-266l183-214c12-15 25-33 42-33 110 1 224 7 329 6 79 0 118-5 60 54-37 46-110 130-194 222-121 134-220 247-220 251s90 204 201 443c88 189 160 357 184 427 10 24 1 45-21 50-29 7-82 10-173 10h-136c-34 3-58-3-71-31zm-4075-140c-123-61-181-139-191-255-7-70 107-1008 158-1307 12-70 18-74 85-74h132c70 0 133-1 173 1 54 1 44 35 40 76-10 92-39 290-75 545-65 453-82 613-66 638 18 28 64 33 370 38l273 4c65-4 78 12 72 71-16 96-25 173-41 260-11 54-46 40-100 43l-319 5c-410 5-412 5-511-45zm3149 35c-4-8 7-118 25-244 18-127 56-398 84-604 80-583 106-758 117-825 12-79 12-74 89-74h122c47 0 84-1 113 0 109 3 96-6 68 163-11 64-45 346-77 583-81 597-134 963-144 991-9 27-384 36-397 10zm-2082-46c51-426 100-749 156-1145 4-48 51-53 105-53 62 0 126-1 185 1 114 0 144 15 132 92-50 372-113 705-179 1084-12 64-27 62-88 62-72 0-198 2-263 1-38-7-47-11-48-42zm808-954c31-165 53-191 99-221 56-37 472-75 615-57 20 3 39 7 58 11 420 100 355 576 327 795-28 209-57 400-62 424-11 41-19 43-210 43-64 0-97-2-134-6-59-4-64-17-58-60 21-174 50-325 72-489 29-222 21-442-255-395-48 12-61 16-67 63-35 220-65 448-97 663-7 51-16 105-26 153-3 12-4 23-7 31-2 9-9 19-15 9-45-81-254-67-341-8-44 31-53 47-35-46 3-20 6-39 9-59 44-284 73-563 127-851zm-597-488c-47-160 92-317 248-322 211-15 269 276 54 407-126 58-257 45-302-85z" fill="#e9232a" fill-rule="nonzero"/></svg>