<svg height="11in" style="enable-background:new 0 0 364.949 521.214;shape-rendering:geometricPrecision;text-rendering:geometricPrecision;image-rendering:optimizeQuality;fill-rule:evenodd;clip-rule:evenodd" viewBox="0 0 8500 11000" width="8.5in" xmlns="http://www.w3.org/2000/svg" xmlns:xlink="http://www.w3.org/1999/xlink"><clipPath id="a"><path d="m4288 4124c516 0 933 418 933 933s-417 933-933 933c-515 0-933-418-933-933s418-933 933-933z"/></clipPath><clipPath id="b"><path d="m4288 4124c516 0 933 418 933 933s-417 933-933 933c-515 0-933-418-933-933s418-933 933-933zm0 363c129 0 248 42 344 113 108 80 186 198 214 333 8 36 12 74 12 113 0 309-255 559-570 559-314 0-570-250-570-559 0-39 4-77 12-113 28-135 106-253 215-333 95-71 214-113 343-113z"/></clipPath><clipPath><path d="m4288 4124c516 0 933 418 933 933s-417 933-933 933c-515 0-933-418-933-933s418-933 933-933z"/></clipPath><clipPath id="c"><path d="m4288 4669c199 0 360 168 360 375 0 208-161 376-360 376s-360-168-360-376c0-207 161-375 360-375z"/></clipPath><clipPath><path d="m4288 4124c516 0 933 418 933 933s-417 933-933 933c-515 0-933-418-933-933s418-933 933-933z"/></clipPath><path d="m4001 6265h229l1 92h-57l134 317 132-317h-58v-92h183v52l-221 516c-53 0-88-19-107-60l-181-416h-55zm-315-16c159 0 289 130 289 290 0 161-130 291-289 291-160 0-289-130-289-291 0-160 129-290 289-290zm-1 95c101 0 182 88 182 197 0 110-81 198-182 198s-182-88-182-198c0-109 81-197 182-197zm1206-95c159 0 288 130 288 290 0 161-129 291-288 291-160 0-289-130-289-291 0-160 129-290 289-290zm-1 95c100 0 182 88 182 197 0 110-82 198-182 198-101 0-182-88-182-198 0-109 81-197 182-197z" fill="#4c3494"/><path d="m4288 4124c516 0 933 418 933 933s-417 933-933 933c-515 0-933-418-933-933s418-933 933-933z" fill="#fff"/><g clip-path="url(#a)"><g clip-path="url(#b)"><image height="1902" width="1902" x="3337" xlink:href="OVO_Images\OVO_ImgID1.png" y="4106"/></g><g clip-path="url(#c)"><image height="1902" width="1902" x="3337" xlink:href="OVO_Images\OVO_ImgID2.png" y="4106"/></g></g><path d="m4288 4124c516 0 933 418 933 933s-417 933-933 933c-515 0-933-418-933-933s418-933 933-933z" fill="none"/></svg>