<?xml version="1.0" encoding="UTF-8"?>
<!-- Generator: visioncortex VTracer 0.6.3 -->
<svg version="1.1" xmlns="http://www.w3.org/2000/svg" width="1280" height="346">
<path d="M0 0 C2.51 1.19 5.01 2.37 7.52 3.56 C8.49 4.02 8.49 4.02 9.47 4.48 C15.86 7.5 22.31 10.38 28.77 13.24 C39.45 17.98 49.99 22.89 60.38 28.25 C62.28 36.96 60.65 42.67 56.02 50.01 C52.81 54.8 49.49 59.5 46.12 64.19 C44.09 67.08 42.07 69.99 40.04 72.89 C38.79 74.69 37.52 76.48 36.25 78.26 C33.01 82.81 30.04 87.35 27.38 92.25 C25.89 91.75 25.89 91.75 24.38 91.25 C24.7 92.11 24.7 92.11 25.03 92.99 C25.49 96.01 24.67 96.95 22.95 99.45 C22.4 100.26 21.84 101.08 21.27 101.93 C20.66 102.8 20.04 103.68 19.41 104.59 C18.78 105.51 18.16 106.43 17.51 107.37 C15.5 110.32 13.47 113.25 11.44 116.19 C8.8 120.03 6.17 123.87 3.54 127.71 C2.9 128.64 2.27 129.56 1.62 130.5 C-3.02 137.29 -7.45 144.17 -11.62 151.25 C-12.62 150.92 -13.61 150.59 -14.62 150.25 C-14.3 151.57 -13.96 152.89 -13.62 154.25 C-14.62 153.92 -15.61 153.59 -16.62 153.25 C-16.41 153.82 -16.19 154.39 -15.97 154.98 C-15.51 158.02 -16.35 159 -18.05 161.53 C-18.6 162.36 -19.16 163.2 -19.73 164.06 C-20.34 164.95 -20.95 165.84 -21.58 166.76 C-22.51 168.14 -22.51 168.14 -23.46 169.55 C-25.44 172.5 -27.44 175.44 -29.44 178.38 C-30.78 180.36 -32.11 182.35 -33.45 184.34 C-35.9 187.97 -38.35 191.61 -40.81 195.23 C-41.56 196.33 -41.56 196.33 -42.31 197.44 C-43.62 199.25 -43.62 199.25 -45.62 201.25 C-46.29 200.92 -46.94 200.59 -47.62 200.25 C-47.42 200.84 -47.22 201.44 -47.01 202.05 C-46.46 205.2 -47.95 206.79 -49.69 209.33 C-50.37 210.28 -50.37 210.28 -51.06 211.25 C-52 212.59 -52.93 213.94 -53.86 215.28 C-54.33 215.95 -54.8 216.62 -55.28 217.3 C-56.5 219.07 -57.67 220.85 -58.83 222.66 C-66.69 234.92 -66.69 234.92 -71.62 238.25 C-74.44 238.38 -74.44 238.38 -76.62 237.25 C-80.08 232.06 -78.53 226.2 -77.62 220.25 C-76.82 216.26 -75.89 212.31 -74.95 208.35 C-74.68 207.21 -74.41 206.07 -74.14 204.9 C-73.3 201.35 -72.47 197.8 -71.62 194.25 C-71.12 192.11 -70.61 189.96 -70.11 187.82 C-69.86 186.78 -69.62 185.74 -69.36 184.67 C-69.12 183.62 -68.87 182.58 -68.62 181.5 C-68.24 179.91 -68.24 179.91 -67.86 178.28 C-62.24 154.45 -56.96 130.59 -52.1 106.6 C-47.74 85.14 -42.97 63.78 -38.06 42.44 C-37.89 41.67 -37.71 40.91 -37.53 40.12 C-33.16 21.1 -33.16 21.1 -31.42 13.72 C-30.87 11.34 -30.36 8.95 -29.88 6.56 C-29.64 5.39 -29.4 4.22 -29.15 3.02 C-28.94 1.98 -28.74 0.94 -28.53 -0.14 C-27.49 -3.13 -26.56 -4.03 -23.88 -5.62 C-15.65 -9.07 -7.25 -3.49 0 0 Z M-54.62 124.25 C-53.62 126.25 -53.62 126.25 -53.62 126.25 Z M-66.62 176.25 C-65.62 178.25 -65.62 178.25 -65.62 178.25 Z M-76.62 220.25 C-75.62 222.25 -75.62 222.25 -75.62 222.25 Z M-77.62 227.25 C-76.62 229.25 -76.62 229.25 -76.62 229.25 Z " fill="#5E8C35" transform="translate(1204.625,87.75)"/>
<path d="M0 0 C5.44 -0.12 10.88 -0.2 16.32 -0.27 C19.7 -0.31 23.07 -0.36 26.45 -0.45 C30.27 -0.54 34.09 -0.58 37.92 -0.6 C39.06 -0.64 40.21 -0.68 41.39 -0.72 C49.05 -0.7 49.05 -0.7 52.58 1.91 C55.72 5.33 57.15 7.41 57.92 12.05 C57.42 17.15 55.76 21.99 54.16 26.84 C53.42 29.17 52.68 31.5 51.94 33.83 C51.74 34.48 51.53 35.12 51.32 35.78 C48.34 45.13 45.51 54.52 42.66 63.9 C42.06 65.87 41.46 67.85 40.86 69.82 C32.28 98.04 23.82 126.3 15.62 154.64 C15.4 155.39 15.18 156.14 14.95 156.91 C14.47 158.57 14.01 160.25 13.55 161.92 C13.3 162.82 13.05 163.71 12.8 164.63 C12.58 165.44 12.36 166.24 12.14 167.07 C11.19 169.44 10.3 170.66 8.29 172.21 C5.48 172.07 3.88 171.71 1.72 169.88 C-0.67 167.1 -1.56 163.64 -2.71 160.21 C-2.98 159.45 -3.24 158.68 -3.51 157.9 C-5.2 152.93 -6.66 147.94 -7.96 142.85 C-8.67 140.38 -9.52 138.09 -10.52 135.71 C-13 129.6 -15.14 123.39 -17.28 117.15 C-17.66 116.03 -18.05 114.91 -18.45 113.76 C-20.04 109.14 -21.62 104.53 -23.15 99.9 C-24.5 95.82 -25.9 91.77 -27.31 87.72 C-27.79 86.34 -28.26 84.96 -28.74 83.58 C-29.48 81.46 -30.21 79.34 -30.95 77.22 C-35.6 63.89 -35.6 63.89 -37.31 57.33 C-38.44 52.98 -39.95 48.92 -41.68 44.78 C-43.56 40.13 -45.15 35.39 -46.78 30.65 C-47.12 29.67 -47.45 28.7 -47.8 27.69 C-48.47 25.77 -49.13 23.85 -49.78 21.93 C-50.39 20.16 -51.01 18.4 -51.64 16.63 C-52.05 15.45 -52.05 15.45 -52.47 14.24 C-52.72 13.56 -52.96 12.87 -53.22 12.16 C-54.03 8.98 -53.54 6.34 -52.71 3.21 C-49.94 0.44 -47.38 0.86 -43.66 0.8 C-42.92 0.78 -42.17 0.76 -41.4 0.74 C-38.88 0.68 -36.36 0.63 -33.84 0.59 C-32.97 0.57 -32.1 0.56 -31.2 0.54 C-26.31 0.45 -21.41 0.38 -16.52 0.31 C-11.01 0.24 -5.51 0.12 0 0 Z M-9.71 1.21 C-9.71 1.54 -9.71 1.87 -9.71 2.21 C3.16 2.21 16.03 2.21 29.29 2.21 C29.29 1.88 29.29 1.55 29.29 1.21 C16.42 1.21 3.55 1.21 -9.71 1.21 Z " fill="#BA2026" transform="translate(1117.7149410247803,15.787517547607422)"/>
<path d="M0 0 C2.25 0.56 2.25 0.56 5 2 C6.11 2.57 7.22 3.15 8.36 3.74 C13.88 7.75 15.06 14.38 16.94 20.62 C17.36 21.97 17.79 23.32 18.22 24.67 C19.51 28.77 20.76 32.88 22 37 C22.37 38.21 22.74 39.43 23.12 40.68 C24.82 46.31 26.49 51.95 28.13 57.6 C30.15 64.54 32.25 71.45 34.39 78.35 C36.49 85.17 38.45 92.03 40.4 98.89 C42.71 107.01 45.06 115.12 47.42 123.23 C47.81 124.57 48.2 125.92 48.59 127.26 C50.2 132.79 51.8 138.31 53.41 143.83 C54.41 147.27 55.41 150.7 56.41 154.14 C56.96 156.04 57.52 157.94 58.07 159.84 C58.74 162.15 59.41 164.46 60.07 166.77 C60.69 168.91 61.31 171.04 61.95 173.17 C62.24 174.14 62.52 175.12 62.81 176.12 C63.19 177.39 63.19 177.39 63.58 178.69 C64.04 181.23 63.99 182.63 63 185 C62.01 185.66 61.02 186.32 60 187 C50.21 178.82 41.25 169.72 33 160 C31.5 158.27 30 156.54 28.49 154.81 C26.22 152.19 23.95 149.57 21.68 146.94 C20.08 145.1 18.48 143.25 16.88 141.41 C11.49 135.19 6.27 128.89 1.22 122.4 C-6.81 112.1 -14.95 101.94 -23.82 92.36 C-25.67 90.35 -27.47 88.32 -29.25 86.25 C-32.09 82.97 -35.05 79.81 -38.02 76.65 C-44.32 69.97 -50.3 63.2 -56 56 C-56.72 55.12 -57.44 54.25 -58.18 53.35 C-68.21 41.12 -68.21 41.12 -67.8 36.94 C-66.33 33.38 -62.36 32.19 -59.06 30.56 C-58.23 30.14 -57.39 29.71 -56.53 29.27 C-53.7 27.83 -50.85 26.42 -48 25 C-45.87 23.94 -43.75 22.87 -41.62 21.81 C-38.31 20.15 -34.99 18.49 -31.67 16.84 C-24.76 13.4 -17.89 9.91 -11.06 6.31 C-10.28 5.9 -9.5 5.49 -8.7 5.07 C-5.69 3.48 -2.84 1.89 0 0 Z " fill="#006E8C" transform="translate(1055,83)"/>
<path d="M0 0 C0.38 2.69 0.38 2.69 0.56 6 C0.45 9.82 0.45 9.82 2 13 C2.45 12.34 2.91 11.68 3.38 11 C3.91 10.34 4.45 9.68 5 9 C5.66 9 6.32 9 7 9 C7.04 8.42 7.08 7.84 7.12 7.25 C8.45 3.83 10.9 2.77 14 1 C14.66 1 15.32 1 16 1 C16 0.34 16 -0.32 16 -1 C19.67 -1.18 23.33 -1.28 27 -1.38 C28.03 -1.43 29.06 -1.48 30.12 -1.53 C36.63 -1.65 40.43 -0.88 45.43 3.38 C51 9.11 51 9.11 51 13 C53.61 11.93 55.11 10.89 57.06 8.81 C58.03 7.86 59.01 6.92 60 6 C60.66 5.38 61.31 4.76 61.99 4.12 C68.41 -0.95 74.25 -1.71 82.19 -1.81 C83.6 -1.85 83.6 -1.85 85.03 -1.88 C91.9 -1.75 96.16 0.1 101 5 C110.69 17.6 108.09 36.29 107.9 51.21 C107.87 53.79 107.86 56.36 107.84 58.94 C107.83 59.72 107.81 60.49 107.8 61.29 C107.77 66.77 108.66 71.7 110 77 C110.34 78.67 110.68 80.33 111 82 C112.11 82.12 113.23 82.25 114.38 82.38 C118 83 118 83 120 85 C120 86.32 120 87.64 120 89 C105.48 89 90.96 89 76 89 C75.67 87.35 75.34 85.7 75 84 C77.96 82.52 80.74 82.94 84 83 C85.05 79.85 85.16 77.55 85.21 74.24 C85.23 73.06 85.25 71.88 85.27 70.66 C85.28 69.39 85.3 68.11 85.32 66.8 C85.35 64.84 85.35 64.84 85.38 62.85 C85.43 59.38 85.48 55.91 85.53 52.44 C85.58 48.9 85.64 45.37 85.69 41.83 C85.8 34.88 85.9 27.94 86 21 C85.67 21 85.34 21 85 21 C84.76 19.97 84.76 19.97 84.52 18.92 C83.14 13.34 83.14 13.34 79.81 8.81 C73.48 6.98 67.62 9.03 62 12 C59.42 14.67 58.24 17.52 57 21 C56.66 21.8 56.31 22.61 55.96 23.44 C54.59 28.52 54.71 33.4 54.73 38.64 C54.73 39.75 54.73 40.87 54.73 42.02 C54.73 44.37 54.73 46.72 54.74 49.08 C54.75 52.69 54.74 56.29 54.73 59.9 C54.73 62.19 54.73 64.47 54.73 66.76 C54.73 67.84 54.73 68.92 54.72 70.04 C54.73 71.04 54.73 72.04 54.74 73.07 C54.74 73.95 54.74 74.84 54.75 75.74 C54.86 78.28 54.86 78.28 57 81 C59.33 81.37 61.66 81.71 64 82 C66 84 66 84 66 89 C51.48 89 36.96 89 22 89 C21.67 87.35 21.34 85.7 21 84 C21.64 83.88 22.28 83.76 22.93 83.63 C23.76 83.47 24.59 83.3 25.44 83.12 C26.26 82.96 27.08 82.8 27.93 82.63 C28.96 82.32 28.96 82.32 30 82 C31.33 79.33 31.14 77.29 31.16 74.3 C31.17 73.1 31.18 71.91 31.19 70.68 C31.19 69.38 31.2 68.08 31.2 66.74 C31.21 65.4 31.21 64.05 31.22 62.71 C31.23 59.88 31.24 57.05 31.24 54.23 C31.25 50.62 31.27 47.02 31.3 43.41 C31.32 40.63 31.32 37.85 31.32 35.06 C31.33 33.09 31.35 31.13 31.37 29.16 C31.35 22.4 31.03 17.1 28 11 C25.93 8.76 25.93 8.76 23 8 C18.08 8.23 13.52 8.95 9 11 C7.91 12.86 7.91 12.86 7 15 C6.5 15.9 6.5 15.9 6 16.82 C5.67 17.44 5.34 18.05 5 18.69 C4.5 19.59 4.5 19.59 4 20.51 C1.19 27.5 0.69 34.58 0.7 42.04 C0.69 43.43 0.69 43.43 0.69 44.84 C0.68 46.78 0.68 48.72 0.68 50.67 C0.69 53.62 0.66 56.58 0.64 59.54 C0.64 61.43 0.64 63.33 0.64 65.23 C0.63 66.1 0.62 66.98 0.61 67.88 C0.65 73.31 1.3 77.24 4 82 C7.01 82.9 7.01 82.9 10 83 C12 85 12 85 12 89 C-2.85 89 -17.7 89 -33 89 C-33.5 86.03 -33.5 86.03 -34 83 C-31.7 81.85 -29.92 81.69 -27.38 81.44 C-26.56 81.35 -25.74 81.27 -24.9 81.18 C-24.27 81.12 -23.65 81.06 -23 81 C-22.22 76.85 -21.87 72.93 -21.87 68.71 C-21.87 67.48 -21.86 66.26 -21.86 65 C-21.86 63.69 -21.87 62.38 -21.87 61.03 C-21.87 59.66 -21.87 58.29 -21.86 56.92 C-21.86 54.06 -21.86 51.19 -21.87 48.33 C-21.88 44.67 -21.87 41.01 -21.87 37.35 C-21.86 34.53 -21.86 31.7 -21.87 28.88 C-21.87 26.87 -21.86 24.87 -21.86 22.87 C-21.86 21.64 -21.87 20.42 -21.87 19.16 C-21.87 18.09 -21.87 17.02 -21.87 15.91 C-21.99 13.17 -22.38 10.67 -23 8 C-27.45 7.01 -27.45 7.01 -32 6 C-32.33 4.35 -32.66 2.7 -33 1 C-24.69 -1.42 -7.88 -3.94 0 0 Z M-32 83 C-32 83.33 -32 83.66 -32 84 C-29.36 84 -26.72 84 -24 84 C-24 83.67 -24 83.34 -24 83 C-26.64 83 -29.28 83 -32 83 Z " fill="#232425" transform="translate(295,237)"/>
<path d="M0 0 C-0 1.05 -0 2.1 -0.01 3.18 C-0.03 13.03 -0.04 22.89 -0.05 32.75 C-0.06 37.82 -0.06 42.89 -0.08 47.96 C-0.09 52.85 -0.09 57.74 -0.09 62.63 C-0.1 64.5 -0.1 66.36 -0.11 68.23 C-0.11 70.84 -0.11 73.45 -0.11 76.06 C-0.12 77.23 -0.12 77.23 -0.12 78.42 C-0.2 82.34 -0.2 82.34 1 86 C5.63 83.75 6.81 81.56 9 77 C13.9 70.37 13.9 70.37 18 69 C18.69 67.68 19.35 66.34 20 65 C22.08 62.28 24.2 59.6 26.37 56.95 C29.13 53.46 31 50.43 32 46 C31.67 45.01 31.34 44.02 31 43 C28.03 42.67 25.06 42.34 22 42 C22 40.68 22 39.36 22 38 C26.93 37.98 31.86 37.96 36.79 37.95 C38.47 37.94 40.14 37.93 41.82 37.92 C44.23 37.91 46.64 37.91 49.05 37.9 C49.8 37.9 50.55 37.89 51.32 37.89 C54.49 37.89 56.97 37.99 60 39 C59.67 39.99 59.34 40.98 59 42 C56.42 43.28 56.42 43.28 53.19 44.5 C49.29 45.98 46.3 47.49 43 50 C40.25 50.19 40.25 50.19 38 50 C37.73 50.58 37.46 51.16 37.19 51.75 C36 54 36 54 34.44 56.06 C32.81 58.04 32.81 58.04 32 61 C31.34 61.31 30.68 61.62 30 61.94 C29.34 62.29 28.68 62.64 28 63 C27.84 63.66 27.67 64.32 27.5 65 C27.34 65.66 27.17 66.32 27 67 C24.97 68.12 24.97 68.12 23 69 C27.7 79.57 34.04 88.97 40.41 98.58 C41.87 100.8 43.3 103.04 44.7 105.29 C45.31 106.26 45.31 106.26 45.92 107.24 C46.99 108.94 48.04 110.64 49.1 112.35 C51.89 116.24 55 118.13 59.25 120.19 C59.96 120.53 60.66 120.88 61.39 121.23 C61.92 121.48 62.45 121.74 63 122 C63 122.99 63 123.98 63 125 C59.46 125.23 55.92 125.37 52.38 125.5 C50.88 125.6 50.88 125.6 49.35 125.7 C42.09 125.9 42.09 125.9 39.11 123.45 C37.53 121.37 36.25 119.28 35 117 C34.21 115.75 33.42 114.5 32.62 113.25 C31.89 112.03 31.16 110.8 30.44 109.56 C30.05 108.91 29.66 108.26 29.26 107.59 C26.84 103.47 24.48 99.33 22.2 95.13 C20.28 91.71 18.2 88.39 16.14 85.07 C15 83 15 83 15 81 C10.14 82.53 10.14 82.53 6.81 86 C6.54 86.66 6.28 87.32 6 88 C5.34 88.47 4.68 88.95 4 89.44 C1.53 91.37 0.98 93.06 0 96 C-0.33 96.66 -0.66 97.32 -1 98 C-0.96 100.81 -0.86 103.57 -0.69 106.38 C-0.65 107.14 -0.62 107.91 -0.58 108.7 C-0.39 114.2 -0.39 114.2 2 119 C3.89 119.62 3.89 119.62 6 119.62 C9.81 119.81 9.81 119.81 12 122 C12 122.99 12 123.98 12 125 C-13.41 125 -38.82 125 -65 125 C-65.33 123.68 -65.66 122.36 -66 121 C-64.11 119.11 -60.69 119.69 -58.13 119.57 C-55.88 119.22 -55.88 119.22 -54.89 117.31 C-53.84 114.57 -53.73 112.44 -53.71 109.5 C-53.7 108.4 -53.68 107.3 -53.67 106.16 C-53.67 104.98 -53.67 103.79 -53.66 102.56 C-53.66 101.33 -53.65 100.1 -53.64 98.83 C-53.63 96.22 -53.63 93.61 -53.63 91 C-53.63 87.04 -53.59 83.08 -53.55 79.12 C-53.54 76.58 -53.54 74.04 -53.54 71.5 C-53.52 70.33 -53.51 69.16 -53.5 67.95 C-53.54 60.22 -54.44 52.97 -58 46 C-62.5 41.91 -66.74 41.79 -72.56 41.83 C-75.36 42.02 -77.48 42.78 -80 44 C-80.99 44 -81.98 44 -83 44 C-83.33 44.66 -83.66 45.32 -84 46 C-85.65 47.69 -87.31 49.36 -89 51 C-89.66 50.67 -90.32 50.34 -91 50 C-90.33 48.67 -89.67 47.33 -89 46 C-88.71 45.34 -88.42 44.68 -88.12 44 C-85.49 39.31 -82.28 37.44 -77.26 35.63 C-73.49 34.58 -69.84 34.53 -65.94 34.56 C-65.17 34.54 -64.41 34.52 -63.62 34.5 C-56.49 34.51 -51.56 37.12 -46.31 42 C-35.64 53.44 -37.94 72.37 -38.05 86.86 C-38.06 88.03 -38.06 88.03 -38.07 89.23 C-38.1 93.16 -38.14 97.1 -38.21 101.04 C-38.23 102.51 -38.24 103.99 -38.26 105.46 C-38.28 106.77 -38.3 108.08 -38.32 109.42 C-38.17 113.58 -38.17 113.58 -35 119 C-29.39 119.33 -23.78 119.66 -18 120 C-18 119.34 -18 118.68 -18 118 C-17.34 118 -16.68 118 -16 118 C-15.95 103.86 -15.92 89.71 -15.9 75.57 C-15.89 69 -15.87 62.44 -15.85 55.87 C-15.83 49.54 -15.82 43.2 -15.81 36.87 C-15.81 34.45 -15.8 32.03 -15.79 29.61 C-15.77 26.23 -15.77 22.84 -15.77 19.46 C-15.76 17.95 -15.76 17.95 -15.75 16.41 C-15.75 15.49 -15.76 14.57 -15.76 13.62 C-15.76 12.42 -15.76 12.42 -15.75 11.19 C-16.03 8.71 -16.67 7.11 -18 5 C-20.68 4.16 -23.17 4.18 -26 4 C-26.56 2.06 -26.56 2.06 -27 0 C-24.76 -2.24 -19.71 -1.47 -16.69 -1.62 C-15.39 -1.7 -15.39 -1.7 -14.06 -1.78 C-13.22 -1.83 -12.38 -1.87 -11.51 -1.91 C-10.36 -1.98 -10.36 -1.98 -9.18 -2.04 C-5.87 -1.98 -3.13 -1.04 0 0 Z M-52 66 C-52 78.87 -52 91.74 -52 105 C-51.67 105 -51.34 105 -51 105 C-51 92.13 -51 79.26 -51 66 C-51.33 66 -51.66 66 -52 66 Z M-64 121 C-64 121.33 -64 121.66 -64 122 C-62.02 122 -60.04 122 -58 122 C-58 121.67 -58 121.34 -58 121 C-59.98 121 -61.96 121 -64 121 Z M-32 121 C-32 121.33 -32 121.66 -32 122 C-28.04 122 -24.08 122 -20 122 C-20 121.67 -20 121.34 -20 121 C-23.96 121 -27.92 121 -32 121 Z " fill="#232425" transform="translate(966,201)"/>
<path d="M0 0 C8.27 -0.12 16.53 -0.21 24.8 -0.26 C28.64 -0.29 32.48 -0.32 36.32 -0.38 C40.04 -0.43 43.75 -0.46 47.47 -0.47 C48.88 -0.48 50.29 -0.5 51.69 -0.53 C64.49 -0.77 74.68 1.79 84.09 10.82 C92.63 20.58 92.81 31.62 92 44 C90.99 50.86 89.53 55.52 84 60 C83.13 60.87 82.27 61.73 81.38 62.62 C80.59 63.41 79.81 64.19 79 65 C78.55 65.51 78.09 66.02 77.62 66.55 C75.7 68.27 74.08 68.86 71.62 69.62 C70.87 69.86 70.12 70.1 69.35 70.35 C64.82 71.6 60.56 72.15 55.86 72.28 C54.13 72.34 54.13 72.34 52.37 72.39 C49.94 72.47 47.51 72.54 45.09 72.61 C43.94 72.64 42.79 72.68 41.61 72.72 C40.56 72.75 39.5 72.78 38.42 72.81 C36.05 72.73 36.05 72.73 35 74 C34.9 76.75 34.86 79.48 34.87 82.23 C34.87 83.06 34.87 83.89 34.86 84.75 C34.86 86.51 34.87 88.27 34.87 90.04 C34.87 92.72 34.87 95.41 34.86 98.1 C34.86 99.81 34.87 101.52 34.87 103.23 C34.87 104.04 34.86 104.84 34.86 105.67 C34.88 109.58 35.04 113.18 36 117 C37.03 117.07 37.03 117.07 38.08 117.15 C38.98 117.22 39.88 117.3 40.81 117.38 C41.71 117.44 42.6 117.51 43.52 117.59 C46 118 46 118 49 120 C49 121.65 49 123.3 49 125 C32.83 125 16.66 125 0 125 C-0.5 122.03 -0.5 122.03 -1 119 C1.01 116.99 4.92 117.56 7.65 117.38 C10.19 117.21 10.19 117.21 12 115 C12.31 113.07 12.31 113.07 12.27 110.84 C12.28 109.97 12.28 109.09 12.29 108.2 C12.29 107.24 12.29 106.28 12.29 105.29 C12.3 104.28 12.3 103.27 12.31 102.23 C12.33 98.89 12.33 95.54 12.34 92.2 C12.34 89.88 12.35 87.56 12.36 85.24 C12.37 80.37 12.37 75.5 12.37 70.64 C12.37 64.39 12.4 58.15 12.43 51.9 C12.45 47.11 12.46 42.32 12.46 37.53 C12.46 35.23 12.47 32.92 12.48 30.62 C12.5 27.4 12.5 24.19 12.49 20.97 C12.5 20.01 12.51 19.06 12.52 18.08 C12.51 12.92 12.51 12.92 10.2 8.42 C7.21 6.49 4.51 6.27 1 6 C0.67 4.02 0.34 2.04 0 0 Z M34 8 C33.71 10.59 33.71 10.59 33.77 13.64 C33.77 14.82 33.77 16.01 33.77 17.22 C33.78 18.5 33.79 19.78 33.8 21.1 C33.81 22.41 33.81 23.72 33.81 25.06 C33.82 28.54 33.84 32.01 33.86 35.49 C33.88 39.03 33.89 42.58 33.9 46.12 C33.92 53.08 33.96 60.04 34 67 C36.07 67.02 38.13 67.03 40.2 67.04 C41.35 67.05 42.5 67.05 43.69 67.06 C52.08 66.91 57.87 64.85 64 59 C69.28 52.24 69.21 46.65 69.25 38.38 C69.27 37.43 69.29 36.48 69.31 35.5 C69.36 26.92 68.03 18.33 62.47 11.47 C56.46 5.46 49.88 5.64 41.82 5.62 C37.44 5.57 37.44 5.57 34 8 Z M2 119 C6 120 6 120 6 120 Z " fill="#232425" transform="translate(14,201)"/>
<path d="M0 0 C1.25 -0.01 2.5 -0.02 3.78 -0.03 C5.16 -0.03 6.54 -0.04 7.92 -0.04 C9.33 -0.05 10.74 -0.05 12.14 -0.06 C15.11 -0.07 18.07 -0.08 21.04 -0.08 C24.82 -0.08 28.59 -0.11 32.37 -0.14 C35.28 -0.16 38.2 -0.16 41.12 -0.16 C42.51 -0.17 43.9 -0.17 45.29 -0.19 C59.79 -0.31 71.3 2.58 82.17 12.6 C87.06 17.87 87.53 23.68 87.35 30.61 C86.84 37.73 85.53 44.11 80.17 49.16 C73.49 53.67 65.97 55.51 58.17 57.16 C58.17 57.49 58.17 57.82 58.17 58.16 C59.43 58.2 60.69 58.24 61.98 58.29 C71.04 59.31 80.31 65.23 86.17 72.16 C86.17 73.15 86.17 74.14 86.17 75.16 C86.83 75.49 87.49 75.82 88.17 76.16 C92.7 84.87 92.47 95.44 89.92 104.79 C87.37 111.91 82.53 116.28 76.17 120.16 C69.38 123.09 62.74 124.29 55.36 124.27 C54.7 124.27 54.03 124.27 53.35 124.28 C51.17 124.27 48.99 124.27 46.81 124.26 C45.29 124.26 43.77 124.26 42.25 124.25 C38.27 124.25 34.29 124.24 30.3 124.23 C26.24 124.22 22.17 124.21 18.1 124.21 C10.12 124.2 2.15 124.18 -5.83 124.16 C-6.16 123.17 -6.49 122.18 -6.83 121.16 C-5.18 119.51 -3.02 119.53 -0.77 119.1 C0.61 118.83 0.61 118.83 2.02 118.56 C2.73 118.43 3.44 118.3 4.17 118.16 C4.24 103.87 4.29 89.58 4.33 75.29 C4.34 68.65 4.36 62.02 4.4 55.38 C4.43 48.98 4.45 42.59 4.45 36.19 C4.46 33.74 4.47 31.3 4.49 28.85 C4.51 25.43 4.51 22.02 4.51 18.6 C4.52 17.58 4.53 16.56 4.54 15.52 C4.54 14.59 4.54 13.66 4.53 12.7 C4.53 11.89 4.54 11.08 4.54 10.25 C4.07 7.6 3.32 6.74 1.17 5.16 C-2.44 4.43 -2.44 4.43 -5.83 4.16 C-6.16 3.17 -6.49 2.18 -6.83 1.16 C-5.05 -0.62 -2.41 0.01 0 0 Z M21.17 7.16 C20.88 9.3 20.88 9.3 20.94 11.79 C20.94 12.76 20.94 13.72 20.94 14.71 C20.95 15.75 20.96 16.79 20.97 17.86 C20.98 18.92 20.98 19.98 20.98 21.08 C20.99 24.48 21.02 27.88 21.05 31.29 C21.06 33.59 21.06 35.89 21.07 38.2 C21.09 43.85 21.13 49.51 21.17 55.16 C25.46 55.25 29.75 55.3 34.05 55.35 C35.85 55.39 35.85 55.39 37.69 55.42 C46.23 55.49 53.92 54.99 61.17 50.16 C61.17 49.5 61.17 48.84 61.17 48.16 C61.77 48.08 62.37 48 62.98 47.91 C65.85 46.93 66.55 45.7 68.17 43.16 C71.16 33.61 70.74 24.48 67.17 15.16 C63.01 9.41 56.01 6.57 49.17 5.16 C44.8 4.94 40.42 4.98 36.05 4.97 C34.84 4.96 33.63 4.95 32.39 4.94 C30.67 4.93 30.67 4.93 28.91 4.93 C27.33 4.92 27.33 4.92 25.72 4.92 C23 4.9 23 4.9 21.17 7.16 Z M6.17 11.16 C6.17 45.81 6.17 80.46 6.17 116.16 C6.5 116.16 6.83 116.16 7.17 116.16 C7.17 81.51 7.17 46.86 7.17 11.16 C6.84 11.16 6.51 11.16 6.17 11.16 Z M22.17 61.16 C20.87 63.75 21.05 65.63 21.06 68.53 C21.06 69.65 21.06 70.77 21.06 71.93 C21.06 73.14 21.07 74.36 21.07 75.61 C21.07 76.85 21.08 78.09 21.08 79.36 C21.08 82.66 21.09 85.96 21.1 89.26 C21.11 92.62 21.12 95.99 21.12 99.35 C21.13 105.96 21.15 112.56 21.17 119.16 C25.74 119.24 30.31 119.29 34.88 119.33 C36.44 119.34 37.99 119.36 39.54 119.39 C41.78 119.42 44.03 119.44 46.27 119.45 C47.3 119.48 47.3 119.48 48.35 119.5 C53.43 119.5 56.7 118.35 61.17 116.16 C62.24 115.69 63.32 115.21 64.42 114.72 C69.57 111.8 71.08 107.57 73.17 102.16 C75.83 91.26 74.31 80.96 69.67 70.91 C65.22 66.02 58.71 62.4 52.17 61.16 C49.85 61.08 47.53 61.05 45.22 61.06 C44.56 61.06 43.9 61.07 43.22 61.07 C41.12 61.07 39.02 61.09 36.92 61.1 C35.49 61.1 34.07 61.11 32.64 61.11 C29.15 61.12 25.66 61.14 22.17 61.16 Z M22.17 120.16 C22.17 120.49 22.17 120.82 22.17 121.16 C31.08 121.16 39.99 121.16 49.17 121.16 C49.17 120.83 49.17 120.5 49.17 120.16 C40.26 120.16 31.35 120.16 22.17 120.16 Z " fill="#232425" transform="translate(661.829833984375,200.8388671875)"/>
<path d="M0 0 C1.03 -0.02 2.07 -0.04 3.13 -0.06 C10.69 -0.06 16.09 1.22 21.9 6.16 C28.85 15.32 28.18 27.19 28.25 38.23 C28.27 39.49 28.29 40.76 28.31 42.06 C28.35 45.39 28.39 48.71 28.42 52.03 C28.46 56.74 28.52 61.46 28.58 66.17 C28.61 68.67 28.64 71.17 28.66 73.68 C28.67 74.8 28.69 75.92 28.7 77.08 C28.71 78.07 28.72 79.06 28.73 80.08 C28.72 82.46 28.72 82.46 29.88 84.44 C32.98 84.47 36.08 84.48 39.19 84.5 C40.07 84.51 40.95 84.52 41.86 84.53 C42.7 84.53 43.55 84.53 44.43 84.54 C45.6 84.54 45.6 84.54 46.79 84.55 C49.07 84.52 49.07 84.52 51.88 83.44 C51.77 74.23 51.65 65.03 51.54 55.82 C51.48 51.55 51.43 47.27 51.38 43 C51.33 38.87 51.28 34.75 51.22 30.63 C51.2 29.05 51.18 27.48 51.17 25.9 C51.14 23.7 51.11 21.5 51.08 19.3 C51.06 17.41 51.06 17.41 51.03 15.49 C51.01 12.4 51.01 12.4 49.88 9.44 C48.01 8.42 48.01 8.42 45.81 7.75 C45.08 7.5 44.35 7.25 43.59 6.99 C43.02 6.81 42.46 6.62 41.88 6.44 C42.19 4.5 42.19 4.5 42.88 2.44 C45.6 1.53 47.23 1.31 50.04 1.3 C51.23 1.3 51.23 1.3 52.44 1.3 C53.68 1.31 53.68 1.31 54.94 1.31 C55.77 1.31 56.59 1.3 57.45 1.3 C58.64 1.3 58.64 1.3 59.85 1.3 C60.93 1.31 60.93 1.31 62.04 1.31 C63.88 1.44 63.88 1.44 65.88 2.44 C66.16 4.96 66.34 7.4 66.44 9.94 C66.23 14.56 66.23 14.56 67.88 18.44 C68.87 17.45 69.86 16.46 70.88 15.44 C70.88 16.1 70.88 16.76 70.88 17.44 C71.53 17.77 72.19 18.1 72.88 18.44 C72.35 19.67 72.35 19.67 71.82 20.92 C71.36 22 70.91 23.08 70.44 24.19 C69.99 25.25 69.53 26.32 69.07 27.42 C67.5 31.4 66.75 34.69 66.73 38.96 C66.72 39.85 66.72 40.73 66.71 41.65 C66.71 42.6 66.71 43.55 66.71 44.53 C66.7 45.51 66.7 46.5 66.7 47.51 C66.69 49.59 66.69 51.67 66.69 53.75 C66.69 56.93 66.67 60.11 66.65 63.29 C66.65 65.3 66.65 67.32 66.64 69.34 C66.63 70.77 66.63 70.77 66.62 72.23 C66.63 73.56 66.63 73.56 66.63 74.92 C66.63 75.69 66.63 76.47 66.63 77.28 C66.91 79.74 67.57 81.34 68.88 83.44 C70.75 84.27 70.75 84.27 72.88 84.56 C76.69 85.25 76.69 85.25 78.88 87.44 C78.88 88.43 78.88 89.42 78.88 90.44 C71.42 90.55 63.96 90.64 56.5 90.7 C53.04 90.72 49.57 90.76 46.11 90.81 C42.12 90.88 38.14 90.9 34.15 90.93 C32.91 90.95 31.67 90.98 30.4 91 C20.79 91.01 20.79 91.01 17.1 88.15 C14.41 84.87 14.04 82.62 13.88 78.44 C10.31 80.06 7.87 82.14 5.05 84.8 C-1.88 90.01 -7.72 91.05 -16.31 90.88 C-17.77 90.89 -17.77 90.89 -19.26 90.9 C-24.36 90.85 -27.99 90.75 -32.12 87.44 C-33.14 86.69 -34.15 85.95 -35.19 85.19 C-38.86 82.01 -41.62 78.19 -42.51 73.36 C-42.66 71.16 -42.67 69.01 -42.62 66.81 C-42.64 66.08 -42.66 65.34 -42.67 64.58 C-42.64 59.49 -41.69 57.01 -38.12 53.44 C-37.35 52.58 -36.58 51.73 -35.79 50.85 C-28.34 44.1 -17.84 40.44 -8.12 38.44 C-7.03 38.21 -5.94 37.98 -4.81 37.75 C1.08 37.25 6.97 37.36 12.88 37.44 C14.86 22.32 14.86 22.32 9.88 8.44 C4.86 4.31 -1.3 3.77 -7.61 4.07 C-11.51 4.64 -13.36 5.61 -16.12 8.44 C-18.53 12.91 -20.14 17.46 -20.75 22.5 C-20.87 23.47 -21 24.44 -21.12 25.44 C-23.85 26.8 -26.09 26.64 -29.12 26.69 C-30.2 26.71 -31.27 26.74 -32.38 26.77 C-33.28 26.66 -34.19 26.55 -35.12 26.44 C-37.52 22.85 -37.68 21.68 -37.12 17.44 C-34.31 10.27 -29 6.48 -22.12 3.44 C-14.72 0.6 -7.89 -0.05 0 0 Z M48.88 2.44 C48.88 2.77 48.88 3.1 48.88 3.44 C50.86 3.44 52.84 3.44 54.88 3.44 C54.88 3.11 54.88 2.78 54.88 2.44 C52.89 2.44 50.91 2.44 48.88 2.44 Z M13.88 31.44 C14.88 33.44 14.88 33.44 14.88 33.44 Z M-17.12 48.44 C-18.05 48.99 -18.98 49.55 -19.94 50.12 C-24.76 55.22 -27.41 61.03 -27.69 68.06 C-27.43 73.07 -26.36 77.51 -23.12 81.44 C-18.5 85.38 -13.56 84.78 -7.81 84.62 C-6.88 84.61 -5.95 84.6 -4.99 84.58 C-2.7 84.55 -0.41 84.5 1.88 84.44 C2.21 83.45 2.53 82.46 2.88 81.44 C4.81 80.81 4.81 80.81 6.88 80.44 C7.53 80.11 8.2 79.78 8.88 79.44 C8.63 78.9 8.38 78.37 8.12 77.81 C7.88 75.44 7.88 75.44 9.75 72.75 C12.16 69 12.41 66.63 12.6 62.29 C12.74 61.37 12.74 61.37 12.88 60.44 C13.53 60.11 14.2 59.78 14.88 59.44 C14.22 59.44 13.55 59.44 12.88 59.44 C13.37 57.95 13.37 57.95 13.88 56.44 C13.95 53.7 13.97 50.99 13.94 48.25 C13.93 47.5 13.93 46.75 13.92 45.98 C13.91 44.13 13.89 42.28 13.88 40.44 C3.16 40.04 -8.05 42.77 -17.12 48.44 Z M-15.12 85.44 C-15.12 85.77 -15.12 86.1 -15.12 86.44 C-12.49 86.44 -9.85 86.44 -7.12 86.44 C-7.12 86.11 -7.12 85.78 -7.12 85.44 C-9.76 85.44 -12.4 85.44 -15.12 85.44 Z M33.88 86.44 C33.88 86.77 33.88 87.1 33.88 87.44 C38.16 87.44 42.46 87.44 46.88 87.44 C46.88 87.11 46.88 86.78 46.88 86.44 C42.59 86.44 38.29 86.44 33.88 86.44 Z " fill="#232425" transform="translate(803.125,235.5625)"/>
<path d="M0 0 C2.51 1.19 5.01 2.37 7.52 3.56 C8.49 4.02 8.49 4.02 9.47 4.48 C15.86 7.5 22.31 10.38 28.77 13.24 C39.45 17.97 50.02 22.85 60.38 28.25 C60.38 32.21 60.38 36.17 60.38 40.25 C42.88 41.57 25.39 42.89 7.38 44.25 C6.38 47.22 6.38 47.22 5.38 50.25 C4.58 52.19 3.77 54.11 2.93 56.03 C2.44 57.16 1.95 58.29 1.44 59.46 C0.9 60.7 0.36 61.95 -0.19 63.19 C-0.76 64.5 -1.33 65.82 -1.91 67.14 C-3.47 70.74 -5.05 74.34 -6.62 77.95 C-8.35 81.91 -10.08 85.88 -11.81 89.85 C-13.98 94.83 -16.15 99.81 -18.33 104.8 C-22.59 114.57 -26.83 124.34 -31.06 134.12 C-42.37 160.26 -53.7 186.39 -65.62 212.25 C-65.95 212.25 -66.29 212.25 -66.62 212.25 C-66.07 206.53 -64.94 201.55 -63.03 196.15 C-62.76 195.38 -62.5 194.61 -62.22 193.82 C-61.34 191.27 -60.45 188.73 -59.56 186.19 C-58.93 184.37 -58.3 182.55 -57.68 180.73 C-56.68 177.87 -55.69 175 -54.7 172.13 C-52.33 165.3 -49.99 158.46 -47.66 151.61 C-47.34 150.64 -47.01 149.68 -46.67 148.68 C-46.01 146.73 -45.35 144.78 -44.69 142.82 C-39.46 127.42 -34.18 112.05 -28.82 96.7 C-27.89 94.03 -26.96 91.36 -26.03 88.68 C-23.35 80.97 -20.65 73.27 -17.83 65.6 C-16.65 62.37 -15.49 59.14 -14.33 55.91 C-13.78 54.41 -13.23 52.91 -12.67 51.42 C-9.04 42.74 -9.04 42.74 -9.44 33.65 C-10.13 32.16 -10.86 30.7 -11.62 29.25 C-12.59 27.05 -13.55 24.85 -14.51 22.64 C-15.86 19.65 -17.22 16.66 -18.59 13.67 C-19.4 11.89 -20.2 10.11 -21.01 8.33 C-21.49 7.28 -21.96 6.23 -22.46 5.15 C-23.62 2.25 -23.62 2.25 -24.16 -0.57 C-24.32 -1.29 -24.47 -2.01 -24.62 -2.75 C-25.29 -3.08 -25.94 -3.41 -26.62 -3.75 C-25.61 -4.27 -24.6 -4.78 -23.56 -5.31 C-22.99 -5.6 -22.43 -5.89 -21.84 -6.19 C-14.09 -8.15 -6.74 -3.25 0 0 Z " fill="#7EB134" transform="translate(1204.625,87.75)"/>
<path d="M0 0 C1.25 -0.04 2.5 -0.07 3.79 -0.11 C12.4 -0.2 17.41 0.97 23.76 6.75 C30.38 13.73 29.55 23.46 29.59 32.41 C29.61 33.65 29.62 34.89 29.64 36.17 C29.69 40.78 29.73 45.39 29.77 50.01 C29.8 54.54 29.85 59.07 29.91 63.6 C29.91 65.39 29.91 65.39 29.92 67.21 C29.94 68.32 29.95 69.44 29.96 70.59 C29.97 72.05 29.97 72.05 29.98 73.54 C30.29 76.77 30.97 79.39 32.25 82.38 C35.15 83.7 35.15 83.7 38.25 84.38 C39.74 85.37 39.74 85.37 41.25 86.38 C41.25 87.69 41.25 89.01 41.25 90.38 C37.71 90.46 34.17 90.52 30.62 90.56 C29.63 90.59 28.63 90.61 27.6 90.64 C22.08 90.69 17.96 90.62 13.25 87.38 C11.38 84.69 11.38 84.69 10.25 82.38 C6.72 83.66 3.86 85.2 0.81 87.38 C-7.23 92.79 -14.36 93.26 -23.85 91.95 C-32.53 90.17 -38.06 86.38 -43.19 79.19 C-46.41 73.39 -46.67 67.21 -45.14 60.81 C-42.49 53.17 -38.17 48.8 -31.14 44.94 C-18.08 38.72 -6.12 37.2 8.25 37.38 C8.17 33.5 8.06 29.62 7.94 25.75 C7.9 24.11 7.9 24.11 7.87 22.43 C7.67 14.45 7.67 14.45 4.25 7.38 C0.67 4.78 -2.44 5.23 -6.63 5.85 C-9.82 6.64 -10.96 7.61 -12.75 10.38 C-14.56 14.6 -15.66 18.61 -16.19 23.19 C-16.86 27.03 -17.72 28 -20.75 30.38 C-23.59 30.87 -23.59 30.87 -26.69 30.81 C-28.22 30.81 -28.22 30.81 -29.78 30.81 C-33.8 30.22 -36.65 28.82 -39.12 25.56 C-40.4 21.09 -38.96 17.49 -36.81 13.56 C-34.75 10.38 -34.75 10.38 -32.75 9.38 C-32.75 8.72 -32.75 8.06 -32.75 7.38 C-30.33 6.39 -27.92 5.41 -25.5 4.44 C-24.82 4.16 -24.14 3.88 -23.43 3.6 C-15.39 0.35 -8.65 0.1 0 0 Z M-17.75 50.38 C-18.08 51.22 -18.41 52.07 -18.75 52.94 C-19.75 55.38 -19.75 55.38 -21.75 56.38 C-24.04 63.94 -23.02 71.33 -19.75 78.38 C-18 81.62 -18 81.62 -14.75 83.38 C-8.28 84.3 -3.19 84.23 2.25 80.38 C7.22 75.41 8.51 69.45 8.64 62.59 C8.61 60.16 8.57 57.74 8.5 55.31 C8.48 54.07 8.46 52.82 8.45 51.53 C8.4 48.48 8.33 45.43 8.25 42.38 C-0.58 42.32 -11.22 43.84 -17.75 50.38 Z M-11.75 84.38 C-11.75 84.7 -11.75 85.03 -11.75 85.38 C-10.1 85.38 -8.45 85.38 -6.75 85.38 C-6.75 85.05 -6.75 84.72 -6.75 84.38 C-8.4 84.38 -10.05 84.38 -11.75 84.38 Z " fill="#232425" transform="translate(462.75,235.625)"/>
<path d="M0 0 C1.17 -0.03 2.34 -0.05 3.54 -0.08 C12.29 -0.04 16.99 1.83 23.43 7.55 C23.97 8.18 24.51 8.8 25.06 9.44 C25.62 10.05 26.17 10.67 26.74 11.3 C31.07 18.07 30.42 25.55 30.31 33.29 C30.3 34.5 30.3 35.72 30.29 36.98 C30.27 40.86 30.23 44.74 30.19 48.62 C30.13 53.74 30.09 58.86 30.06 63.97 C30.05 65.14 30.03 66.32 30.01 67.52 C29.85 75.28 29.85 75.28 32.19 82.56 C35.09 83.89 35.09 83.89 38.19 84.56 C39.67 85.55 39.67 85.55 41.19 86.56 C41.19 87.88 41.19 89.2 41.19 90.56 C37.83 90.65 34.48 90.7 31.12 90.75 C30.18 90.78 29.24 90.8 28.27 90.83 C21.6 90.9 16.67 90.26 11.25 86.06 C10.19 84.56 10.19 84.56 10.19 81.56 C9.2 82.22 8.21 82.88 7.19 83.56 C6.2 83.56 5.21 83.56 4.19 83.56 C3.69 85.05 3.69 85.05 3.19 86.56 C1.3 87.91 1.3 87.91 -1.06 89.19 C-1.83 89.61 -2.6 90.04 -3.39 90.48 C-8.37 92.71 -13.36 92.77 -18.75 92.81 C-19.44 92.83 -20.13 92.85 -20.84 92.88 C-28.64 92.93 -33.44 89.51 -38.98 84.45 C-43.29 80.02 -45.53 75.21 -45.98 69.02 C-45.49 61.74 -42.06 53.7 -36.81 48.56 C-25.86 40.21 -12.9 37.34 0.62 37.5 C1.72 37.51 1.72 37.51 2.84 37.51 C4.62 37.53 6.41 37.54 8.19 37.56 C8.08 33.9 7.95 30.23 7.81 26.56 C7.78 25.53 7.75 24.5 7.72 23.44 C7.49 17.52 6.87 12.25 5.19 6.56 C0.25 5.23 -4.01 5.1 -9 6.38 C-14.93 10.99 -16.06 19.67 -17.32 26.79 C-17.81 28.56 -17.81 28.56 -19.81 30.56 C-26.21 31.3 -32.41 31.4 -37.81 27.56 C-40.18 24.01 -40.3 22.76 -39.81 18.56 C-37.04 12.18 -37.04 12.18 -33.81 10.56 C-33.36 10.11 -32.9 9.66 -32.44 9.19 C-23.57 0.32 -11.82 0.14 0 0 Z M9.19 20.56 C9.19 26.5 9.19 32.44 9.19 38.56 C9.52 38.56 9.85 38.56 10.19 38.56 C10.19 32.62 10.19 26.68 10.19 20.56 C9.86 20.56 9.53 20.56 9.19 20.56 Z M-13.68 47.66 C-15.81 48.56 -15.81 48.56 -18.81 49.56 C-18.94 50.31 -19.06 51.05 -19.19 51.81 C-19.81 54.56 -19.81 54.56 -20.83 56.25 C-22.24 59.57 -22.2 62.82 -22.19 66.38 C-22.19 67.09 -22.18 67.81 -22.18 68.55 C-22.05 74.11 -21.42 77.35 -17.81 81.56 C-13.17 84.51 -8.12 84.06 -2.81 83.56 C0.46 82.41 2.38 81.71 4.38 78.88 C4.64 78.11 4.91 77.35 5.19 76.56 C5.7 75.47 6.2 74.38 6.73 73.26 C8.95 67.34 8.51 61.3 8.38 55.06 C8.36 53.86 8.35 52.65 8.33 51.41 C8.3 48.46 8.25 45.51 8.19 42.56 C0.37 42.56 -6.53 44.62 -13.68 47.66 Z M9.19 43.56 C9.19 49.83 9.19 56.1 9.19 62.56 C9.52 62.56 9.85 62.56 10.19 62.56 C10.19 56.29 10.19 50.02 10.19 43.56 C9.86 43.56 9.53 43.56 9.19 43.56 Z M2.19 83.56 C3.19 85.56 3.19 85.56 3.19 85.56 Z M-10.81 84.56 C-6.81 85.56 -6.81 85.56 -6.81 85.56 Z " fill="#232425" transform="translate(605.8125,235.4375)"/>
<path d="M0 0 C0.99 0 1.98 0 3 0 C5.52 5.35 7.99 10.72 10.43 16.11 C11.26 17.94 12.11 19.77 12.96 21.58 C14.2 24.21 15.39 26.85 16.57 29.49 C17.16 30.69 17.16 30.69 17.75 31.92 C20.64 38.56 19.57 42.43 17 49 C16.25 51.24 15.51 53.48 14.77 55.73 C13.9 58.29 13.04 60.85 12.17 63.41 C11.69 64.81 11.22 66.21 10.75 67.6 C9.49 71.32 8.23 75.04 6.97 78.76 C5.92 81.85 4.87 84.95 3.82 88.05 C-2.45 106.55 -8.73 125.05 -15.05 143.54 C-15.59 145.11 -16.13 146.68 -16.67 148.25 C-16.93 149.02 -17.2 149.79 -17.47 150.59 C-19.67 157.04 -21.86 163.49 -24.05 169.94 C-30.93 190.23 -37.86 210.49 -45.16 230.64 C-46.15 233.41 -47.09 236.2 -48 239 C-48.99 238.34 -49.98 237.68 -51 237 C-50.97 228.04 -49.4 219.76 -47.33 211.09 C-47.06 209.95 -46.79 208.81 -46.52 207.64 C-45.68 204.09 -44.84 200.55 -44 197 C-43.49 194.86 -42.99 192.72 -42.48 190.57 C-42.24 189.53 -41.99 188.49 -41.74 187.42 C-41.49 186.37 -41.25 185.33 -40.99 184.25 C-40.62 182.66 -40.62 182.66 -40.23 181.03 C-34.62 157.2 -29.34 133.34 -24.47 109.35 C-20.11 87.89 -15.35 66.53 -10.44 45.19 C-10.26 44.42 -10.09 43.66 -9.9 42.87 C-7.88 34.07 -5.85 25.28 -3.81 16.48 C-2.53 10.99 -1.27 5.49 0 0 Z M-27 127 C-26 129 -26 129 -26 129 Z M-39 179 C-38 181 -38 181 -38 181 Z M-49 223 C-48 225 -48 225 -48 225 Z M-50 230 C-49 232 -49 232 -49 232 Z " fill="#277337" transform="translate(1177,85)"/>
<path d="M0 0 C9.11 7.18 14.56 14.83 16.46 26.46 C16.53 28.39 16.55 30.33 16.52 32.27 C16.51 33.25 16.51 34.22 16.5 35.23 C16.48 35.96 16.47 36.7 16.46 37.46 C15.77 37.47 15.09 37.48 14.38 37.49 C7.26 37.6 0.14 37.71 -6.98 37.83 C-9.64 37.87 -12.3 37.91 -14.97 37.95 C-18.78 38.01 -22.6 38.08 -26.41 38.14 C-28.21 38.17 -28.21 38.17 -30.04 38.19 C-31.69 38.22 -31.69 38.22 -33.38 38.25 C-34.84 38.28 -34.84 38.28 -36.33 38.3 C-38.51 38.21 -38.51 38.21 -39.54 39.46 C-39.81 44.59 -39.17 49.25 -37.91 54.21 C-37.65 55.25 -37.65 55.25 -37.39 56.31 C-35.42 63.59 -32.45 71.47 -26.54 76.46 C-22.87 77.68 -19.48 77.6 -15.66 77.58 C-14.96 77.59 -14.25 77.59 -13.52 77.59 C-9.76 77.59 -6.16 77.54 -2.54 76.46 C-2.21 75.8 -1.88 75.14 -1.54 74.46 C-0.57 74.17 0.4 73.88 1.4 73.58 C4.48 72.8 4.48 72.8 5.52 70.77 C5.99 69.62 5.99 69.62 6.46 68.46 C8.06 66.08 9.76 63.77 11.46 61.46 C13.44 62.45 13.44 62.45 15.46 63.46 C14.85 69.95 14.85 69.95 13.21 72.08 C12.34 72.76 12.34 72.76 11.46 73.46 C10.68 74.26 9.89 75.07 9.09 75.89 C0.53 84.25 -7 86.86 -18.85 86.96 C-31.51 86.78 -41.23 84.84 -50.5 75.86 C-59.55 66.51 -64.4 54.83 -64.59 41.79 C-64.37 38.64 -64.01 35.57 -63.54 32.46 C-63.42 31.16 -63.29 29.86 -63.16 28.52 C-62.47 25.12 -61.17 22.5 -59.54 19.46 C-59.54 18.8 -59.54 18.14 -59.54 17.46 C-58.54 16.46 -57.54 15.46 -56.54 14.46 C-55.98 13.55 -55.43 12.64 -54.85 11.71 C-42.77 -5.27 -18.06 -10.97 0 0 Z M-29.54 2.46 C-35.15 8.06 -38.21 17.73 -39.54 25.46 C-39.54 27.77 -39.54 30.08 -39.54 32.46 C-28.32 32.46 -17.1 32.46 -5.54 32.46 C-6.25 15.63 -6.25 15.63 -14.54 1.46 C-19.87 -2.04 -24.16 -0.13 -29.54 2.46 Z M-63.54 40.46 C-62.54 43.46 -62.54 43.46 -62.54 43.46 Z M-19.54 79.46 C-19.54 79.79 -19.54 80.12 -19.54 80.46 C-15.91 80.46 -12.28 80.46 -8.54 80.46 C-8.54 80.13 -8.54 79.8 -8.54 79.46 C-12.17 79.46 -15.8 79.46 -19.54 79.46 Z " fill="#232425" transform="translate(167.5390625,240.54296875)"/>
<path d="M0 0 C7.77 2.98 15.3 6.37 22.81 9.94 C23.92 10.45 25.02 10.96 26.16 11.49 C27.76 12.25 27.76 12.25 29.39 13.03 C30.35 13.48 31.31 13.93 32.3 14.39 C36.29 16.77 39.35 18.79 40.72 23.45 C41.29 26.55 41.71 29.64 42.1 32.77 C42.26 33.93 42.42 35.08 42.58 36.28 C42.91 38.68 43.23 41.08 43.54 43.48 C43.96 46.73 44.42 49.97 44.88 53.21 C45.76 59.34 46.61 65.48 47.45 71.61 C47.6 72.71 47.75 73.81 47.91 74.94 C48.7 80.71 49.49 86.48 50.28 92.25 C51.09 98.17 51.91 104.08 52.73 109.99 C53.37 114.59 54 119.2 54.63 123.8 C54.92 125.98 55.23 128.17 55.53 130.35 C58.55 152.03 58.55 152.03 58 163 C53.66 160.09 52.5 156.83 50.94 152 C50.68 151.24 50.42 150.47 50.15 149.69 C48.49 144.72 47.05 139.72 45.76 134.64 C45.05 132.17 44.19 129.87 43.2 127.5 C40.71 121.39 38.57 115.18 36.44 108.94 C36.05 107.82 35.67 106.7 35.27 105.54 C33.68 100.93 32.1 96.32 30.57 91.68 C29.22 87.61 27.81 83.56 26.41 79.51 C25.93 78.13 25.45 76.75 24.97 75.37 C24.24 73.25 23.5 71.13 22.76 69.01 C18.11 55.68 18.11 55.68 16.41 49.12 C15.27 44.77 13.76 40.7 12.04 36.55 C10.17 31.95 8.57 27.25 6.94 22.56 C6.6 21.6 6.26 20.64 5.91 19.65 C3.65 13.17 1.72 6.65 0 0 Z " fill="#671317" transform="translate(1064,24)"/>
<path d="M0 0 C0 0.66 0 1.32 0 2 C0.8 1.74 0.8 1.74 1.61 1.48 C4.6 0.88 7.21 1.08 10.26 1.3 C12.06 1.44 12.06 1.44 13.9 1.57 C15.15 1.67 16.4 1.77 17.69 1.88 C19.58 2.01 19.58 2.01 21.51 2.15 C30.87 2.87 30.87 2.87 32 4 C32.02 5.75 32.03 7.5 32.05 9.25 C32.63 16.55 35.81 21.42 39.96 27.21 C41.3 29.07 42.6 30.95 43.9 32.83 C45.34 34.92 46.79 37.01 48.24 39.09 C54.16 47.61 59.83 56.3 65.52 64.98 C68.6 69.69 71.7 74.39 74.8 79.09 C75.7 80.46 75.7 80.46 76.63 81.87 C83.51 92.3 90.44 102.69 97.39 113.06 C97.82 113.7 98.25 114.35 98.69 115.01 C99.82 116.7 100.96 118.4 102.1 120.1 C103.32 121.97 104.51 123.86 105.64 125.78 C106.9 128.07 106.9 128.07 108.88 129.69 C111.54 132.58 112.94 135.65 114.63 139.18 C116.92 143.88 119.47 148.43 122 153 C118.88 151.61 116.76 150 114.36 147.59 C113.68 146.91 113 146.23 112.3 145.53 C111.26 144.46 111.26 144.46 110.19 143.38 C109.5 142.69 108.81 142 108.11 141.29 C103.54 136.69 99.22 131.92 95 127 C93.97 125.81 92.93 124.62 91.89 123.43 C89.15 120.27 86.42 117.11 83.68 113.94 C82.08 112.1 80.48 110.25 78.88 108.41 C73.49 102.19 68.27 95.89 63.22 89.4 C55.19 79.1 47.05 68.94 38.18 59.36 C36.33 57.35 34.53 55.32 32.75 53.25 C29.91 49.97 26.95 46.81 23.98 43.65 C17.68 36.97 11.7 30.2 6 23 C4.92 21.69 4.92 21.69 3.82 20.35 C-6.06 8.29 -6.06 8.29 -5.94 3.69 C-4.53 1.15 -2.92 0 0 0 Z " fill="#194A63" transform="translate(993,116)"/>
<path d="M0 0 C0.41 2.94 0.41 2.94 0.62 6.56 C0.7 7.76 0.77 8.96 0.85 10.19 C0.9 11.12 0.95 12.05 1 13 C1.63 12.37 2.25 11.75 2.9 11.1 C5.27 8.73 7.63 6.37 10 4 C10 3.34 10 2.68 10 2 C16.55 -1.02 22.81 -2.38 30 -1 C34.3 1.51 37.41 4.24 39 9 C39.39 13.2 39.46 15.3 37.12 18.88 C33.97 22.03 32 22.22 27.62 22.38 C22.39 22.33 22.39 22.33 19.38 19.81 C18.07 17.14 17.34 14.95 17 12 C12.55 12.51 10.16 13.84 7 17 C1.7 25.08 0.69 34.15 0.73 43.6 C0.73 44.48 0.73 45.36 0.73 46.27 C0.73 48.12 0.73 49.96 0.74 51.81 C0.75 54.62 0.74 57.44 0.73 60.25 C0.73 62.05 0.73 63.86 0.73 65.66 C0.73 66.5 0.73 67.33 0.72 68.19 C0.76 73.17 1.41 77.28 3 82 C4.99 82.2 6.97 82.39 8.96 82.59 C11 83 11 83 14 85 C14 86.32 14 87.64 14 89 C-1.18 89 -16.36 89 -32 89 C-32.33 88.01 -32.66 87.02 -33 86 C-29.08 83.17 -26.86 81.97 -22 81 C-22 56.91 -22 32.82 -22 8 C-25.3 7.34 -28.6 6.68 -32 6 C-32.33 5.01 -32.66 4.02 -33 3 C-31.16 0.58 -30.18 0.03 -27.14 -0.51 C-26 -0.57 -24.86 -0.63 -23.69 -0.69 C-22.45 -0.75 -21.21 -0.81 -19.93 -0.88 C-2.81 -1.41 -2.81 -1.41 0 0 Z M-30 1 C-26 2 -26 2 -26 2 Z " fill="#232425" transform="translate(219,237)"/>
<path d="M0 0 C0.33 8.58 0.66 17.16 1 26 C6.61 26.33 12.22 26.66 18 27 C18.5 29.47 18.5 29.47 19 32 C12.73 32.33 6.46 32.66 0 33 C0.09 41.63 0.18 50.26 0.29 58.9 C0.34 62.9 0.38 66.91 0.42 70.92 C0.46 74.79 0.51 78.66 0.56 82.53 C0.58 84.01 0.59 85.48 0.6 86.96 C0.62 89.03 0.65 91.1 0.68 93.17 C0.69 94.35 0.71 95.52 0.72 96.73 C1.01 100.1 1.8 102.85 3 106 C4.94 106.05 6.87 106.09 8.81 106.12 C9.89 106.15 10.97 106.17 12.08 106.2 C15.19 106.23 15.19 106.23 18 104 C20.12 104.19 20.12 104.19 22 105 C22.33 105.99 22.66 106.98 23 108 C18.68 113.51 13.8 114.92 7 116 C-0.43 116.59 -7.58 117.15 -14 113 C-18.64 108.62 -21.71 104.33 -22.28 97.82 C-22.29 96.62 -22.31 95.42 -22.32 94.19 C-22.33 93.19 -22.33 93.19 -22.35 92.18 C-22.38 90 -22.4 87.82 -22.41 85.64 C-22.43 84.12 -22.45 82.6 -22.47 81.08 C-22.52 77.1 -22.56 73.12 -22.6 69.13 C-22.64 65.07 -22.69 61 -22.74 56.93 C-22.84 48.95 -22.92 40.98 -23 33 C-26.96 32.5 -26.96 32.5 -31 32 C-31.62 30.19 -31.62 30.19 -32 28 C-30 25 -30 25 -27.87 24.56 C-27.07 24.52 -26.26 24.48 -25.44 24.44 C-23.06 24.35 -23.06 24.35 -21 24 C-20.67 23.34 -20.34 22.68 -20 22 C-19.01 21.67 -18.02 21.34 -17 21 C-15.66 18.79 -15.66 18.79 -14.56 16.06 C-14.13 15.08 -13.71 14.09 -13.27 13.07 C-11.74 9.37 -10.29 5.65 -8.89 1.9 C-6.87 -2.39 -4.74 -0.79 0 0 Z " fill="#232425" transform="translate(534,212)"/>
<path d="M0 0 C4.18 1.13 7.48 3.54 11 6 C9.53 9.19 7.73 11.82 5.59 14.6 C4.91 15.48 4.23 16.36 3.54 17.26 C2.82 18.19 2.11 19.11 1.38 20.06 C-0.07 21.96 -1.52 23.86 -2.97 25.75 C-5.25 28.73 -7.55 31.7 -9.87 34.65 C-10.59 35.59 -11.32 36.53 -12.06 37.5 C-12.98 38.66 -12.98 38.66 -13.91 39.84 C-15.35 42.69 -14.81 43.96 -14 47 C-13.08 49.11 -13.08 49.11 -11.88 51.18 C-11.2 52.39 -11.2 52.39 -10.51 53.63 C-10.01 54.52 -9.51 55.4 -9 56.31 C-7.9 58.29 -6.8 60.28 -5.71 62.26 C-4.81 63.88 -4.81 63.88 -3.9 65.53 C-0.43 71.86 2.94 78.24 6.31 84.62 C7.77 87.38 9.23 90.14 10.7 92.89 C11.06 93.57 11.42 94.25 11.79 94.95 C17.21 105.18 22.69 115.38 28.16 125.57 C29.74 128.52 31.32 131.47 32.9 134.43 C33.86 136.22 34.82 138.01 35.78 139.81 C36.97 142.03 38.16 144.25 39.35 146.48 C41.75 150.96 44.18 155.35 46.96 159.61 C47.63 160.73 48.31 161.85 49 163 C48.67 163.66 48.34 164.32 48 165 C47.67 164.01 47.34 163.02 47 162 C46.01 161.67 45.02 161.34 44 161 C42.67 159.23 42.67 159.23 41.19 156.75 C37.81 151.2 34.23 145.8 30.61 140.41 C25.74 133.11 20.88 125.81 16.06 118.48 C15.49 117.61 14.92 116.74 14.33 115.85 C13.15 114.06 11.98 112.28 10.8 110.49 C-2.06 90.94 -14.99 71.45 -28 52 C-30.27 48.6 -30.37 46.83 -30.62 42.81 C-30.7 41.73 -30.77 40.64 -30.85 39.52 C-30.9 38.69 -30.95 37.86 -31 37 C-35.42 36.66 -39.83 36.33 -44.25 36 C-45.5 35.9 -46.76 35.81 -48.05 35.71 C-49.86 35.58 -49.86 35.58 -51.7 35.44 C-52.81 35.35 -53.92 35.27 -55.07 35.18 C-57.37 35.04 -59.69 35 -62 35 C-62 34.01 -62 33.02 -62 32 C-60.89 31.45 -59.78 30.89 -58.63 30.32 C-54.4 28.22 -50.18 26.11 -45.95 24 C-44.14 23.1 -42.33 22.2 -40.52 21.3 C-30.76 16.44 -21.02 11.53 -11.36 6.46 C-10.16 5.83 -10.16 5.83 -8.94 5.19 C-8.2 4.8 -7.47 4.41 -6.7 4.01 C-6.06 3.67 -5.41 3.33 -4.75 2.98 C-3.12 2.07 -1.55 1.04 0 0 Z " fill="#0E9BC1" transform="translate(1055,83)"/>
<path d="M0 0 C0.31 0.77 0.31 0.77 0.62 1.56 C3.49 8.37 7.21 14.5 11.12 20.75 C12.38 22.76 13.63 24.78 14.88 26.8 C15.43 27.68 15.98 28.56 16.55 29.46 C17.95 31.92 19.02 34.35 20 37 C18.4 38.01 16.8 39.01 15.19 40 C14.29 40.56 13.4 41.11 12.48 41.69 C10 43 10 43 7 43 C6.38 41.58 6.38 41.58 5.75 40.13 C4.21 36.6 2.67 33.07 1.13 29.55 C0.46 28.02 -0.2 26.5 -0.87 24.97 C-1.82 22.78 -2.78 20.58 -3.74 18.39 C-4.04 17.71 -4.33 17.03 -4.64 16.33 C-5.76 13.76 -6.89 11.21 -8.2 8.73 C-9 7 -9 7 -9 4 C-9.66 3.67 -10.32 3.34 -11 3 C-4.5 0 -4.5 0 0 0 Z " fill="#5F8D34" transform="translate(1189,81)"/>
<path d="M0 0 C0 0.66 0 1.32 0 2 C0.8 1.74 0.8 1.74 1.61 1.48 C4.6 0.88 7.21 1.08 10.26 1.3 C12.06 1.44 12.06 1.44 13.9 1.57 C15.15 1.67 16.4 1.77 17.69 1.88 C19.58 2.01 19.58 2.01 21.51 2.15 C30.87 2.87 30.87 2.87 32 4 C32.07 5.69 32.08 7.38 32.06 9.06 C32.05 9.98 32.04 10.9 32.04 11.85 C32.02 12.56 32.01 13.27 32 14 C24.39 13.51 16.95 12.39 9.46 11.02 C4.89 10.21 0.64 9.86 -4 10 C-5.35 7.78 -6.04 6.5 -5.81 3.88 C-4.62 1.13 -3.01 0 0 0 Z " fill="#006E8C" transform="translate(993,116)"/>
<path d="M0 0 C18.81 0 37.62 0 57 0 C57 0.33 57 0.66 57 1 C38.19 1 19.38 1 0 1 C0 0.67 0 0.34 0 0 Z " fill="#242526" transform="translate(16,200)"/>
<path d="M0 0 C18.15 0 36.3 0 55 0 C55 0.33 55 0.66 55 1 C36.85 1 18.7 1 0 1 C0 0.67 0 0.34 0 0 Z " fill="#242526" transform="translate(657,200)"/>
<path d="M0 0 C5.28 0 10.56 0 16 0 C16 0.33 16 0.66 16 1 C10.72 1 5.44 1 0 1 C0 0.67 0 0.34 0 0 Z " fill="#242526" transform="translate(535,237)"/>
<path d="M0 0 C0 0.99 0 1.98 0 3 C-1.98 3.99 -1.98 3.99 -4 5 C-2.68 3.35 -1.36 1.7 0 0 Z " fill="#101012" transform="translate(1003,254)"/>
<path d="M0 0 C0 0.99 0 1.98 0 3 C-0.99 3 -1.98 3 -3 3 C-2.01 2.01 -1.02 1.02 0 0 Z " fill="#0F0F11" transform="translate(97,261)"/>
<path d="M0 0 C0 0.99 0 1.98 0 3 C-0.66 2.67 -1.32 2.34 -2 2 C-1.34 1.34 -0.68 0.68 0 0 Z " fill="#0E0E10" transform="translate(178,314)"/>
<path d="M0 0 C0.99 0.5 0.99 0.5 2 1 C1.01 1.5 1.01 1.5 0 2 C0 1.34 0 0.68 0 0 Z " fill="#242526" transform="translate(378,318)"/>
<path d="" fill="#242526" transform="translate(0,0)"/>
<path d="" fill="#242526" transform="translate(0,0)"/>
<path d="" fill="#242526" transform="translate(0,0)"/>
<path d="M0 0 C2 1 2 1 2 1 Z " fill="#0C2533" transform="translate(1005,252)"/>
<path d="" fill="#242526" transform="translate(0,0)"/>
<path d="" fill="#242526" transform="translate(0,0)"/>
<path d="" fill="#000002" transform="translate(0,0)"/>
<path d="" fill="#000002" transform="translate(0,0)"/>
<path d="" fill="#000002" transform="translate(0,0)"/>
<path d="" fill="#242526" transform="translate(0,0)"/>
<path d="" fill="#000002" transform="translate(0,0)"/>
<path d="" fill="#242526" transform="translate(0,0)"/>
<path d="" fill="#242526" transform="translate(0,0)"/>
<path d="" fill="#242526" transform="translate(0,0)"/>
<path d="" fill="#242526" transform="translate(0,0)"/>
<path d="" fill="#242526" transform="translate(0,0)"/>
<path d="" fill="#242526" transform="translate(0,0)"/>
<path d="" fill="#242526" transform="translate(0,0)"/>
<path d="" fill="#242526" transform="translate(0,0)"/>
<path d="" fill="#242526" transform="translate(0,0)"/>
<path d="" fill="#000002" transform="translate(0,0)"/>
<path d="" fill="#242526" transform="translate(0,0)"/>
<path d="" fill="#242526" transform="translate(0,0)"/>
<path d="" fill="#000002" transform="translate(0,0)"/>
<path d="" fill="#000002" transform="translate(0,0)"/>
<path d="" fill="#242526" transform="translate(0,0)"/>
<path d="" fill="#000002" transform="translate(0,0)"/>
<path d="" fill="#000002" transform="translate(0,0)"/>
<path d="" fill="#242526" transform="translate(0,0)"/>
<path d="" fill="#242526" transform="translate(0,0)"/>
<path d="" fill="#242526" transform="translate(0,0)"/>
<path d="" fill="#242526" transform="translate(0,0)"/>
<path d="" fill="#242526" transform="translate(0,0)"/>
<path d="" fill="#242526" transform="translate(0,0)"/>
<path d="" fill="#242526" transform="translate(0,0)"/>
<path d="" fill="#000002" transform="translate(0,0)"/>
<path d="" fill="#000002" transform="translate(0,0)"/>
<path d="" fill="#000002" transform="translate(0,0)"/>
<path d="" fill="#000002" transform="translate(0,0)"/>
<path d="" fill="#000002" transform="translate(0,0)"/>
<path d="" fill="#000002" transform="translate(0,0)"/>
<path d="" fill="#000002" transform="translate(0,0)"/>
<path d="" fill="#000002" transform="translate(0,0)"/>
<path d="" fill="#000002" transform="translate(0,0)"/>
<path d="" fill="#000002" transform="translate(0,0)"/>
<path d="" fill="#000002" transform="translate(0,0)"/>
<path d="" fill="#000002" transform="translate(0,0)"/>
<path d="" fill="#000002" transform="translate(0,0)"/>
<path d="" fill="#242526" transform="translate(0,0)"/>
<path d="" fill="#242526" transform="translate(0,0)"/>
<path d="" fill="#000002" transform="translate(0,0)"/>
<path d="" fill="#242526" transform="translate(0,0)"/>
<path d="" fill="#242526" transform="translate(0,0)"/>
<path d="" fill="#242526" transform="translate(0,0)"/>
<path d="" fill="#242526" transform="translate(0,0)"/>
<path d="" fill="#242526" transform="translate(0,0)"/>
<path d="" fill="#242526" transform="translate(0,0)"/>
</svg>
