<svg clip-rule="evenodd" fill-rule="evenodd" height="31.4476mm" image-rendering="optimizeQuality" shape-rendering="geometricPrecision" text-rendering="geometricPrecision" viewBox="0 0 4718 3145" width="47.1812mm" xmlns="http://www.w3.org/2000/svg"><g fill-rule="nonzero"><path d="m4290 3129 138-387h155l135 387h-150l-12-49h-105l-12 49zm184-141h58l-12-44c-6-22-10-39-12-51s-3-23-4-34h-2c-1 11-2 22-4 34s-6 29-12 51zm-351 141v-387h142v387zm-365-43 44-108c20 14 38 24 53 30 16 6 30 10 44 10 10 0 17-2 22-5 6-4 8-8 8-15 0-11-14-19-41-25-9-2-16-3-21-5-29-7-51-20-66-38s-23-40-23-67c0-42 15-75 45-101s69-39 117-39c22 0 44 3 66 9 21 6 43 15 65 26l-42 101c-13-10-27-17-40-23-13-5-27-8-39-8-10 0-17 2-22 5s-8 8-8 14c0 11 19 21 58 29 6 1 11 3 14 3 27 6 48 18 63 37 15 18 23 41 23 67 0 43-15 78-46 105s-71 41-121 41c-25 0-51-4-76-11s-51-18-76-32zm-291 43v-387h259v105h-122v37h111v99h-111v41h125v105zm-465 0v-387h136l120 202c-2-9-3-19-3-30-1-11-1-25-1-43v-130h134v387h-137l-119-201c1 9 2 18 3 28s1 21 1 33v140h-134zm-62-193c0 28-5 55-15 79s-25 46-44 65-42 33-67 43-52 15-81 15-56-5-81-15-48-25-67-44-34-40-44-64-15-51-15-80 5-55 15-80c10-24 24-46 44-65 19-19 42-33 67-43s52-15 81-15 56 5 81 15 48 24 67 43 33 41 43 65c10 25 15 51 15 80zm-207 73c20 0 35-7 47-20s18-31 18-53-6-40-18-53-28-20-47-20c-20 0-35 7-47 20-12 14-18 31-18 53s6 40 18 53 28 20 47 20zm-623 120v-387h113c36 0 66 2 92 6 25 4 46 10 62 18 34 18 59 41 77 70s27 62 27 99-9 70-27 99-43 52-77 70c-16 8-37 15-62 19s-59 6-101 6h-102zm138-118c31 0 54-6 69-18 14-12 22-31 22-57 0-25-7-44-21-56s-35-18-64-18h-6v150zm-604 118v-387h136l120 202c-2-9-3-19-3-30-1-11-1-25-1-43v-130h134v387h-137l-119-201c1 9 2 18 3 28s1 21 1 33v140h-134zm-217 0v-387h141v387zm-560-27 44-108c20 14 38 24 53 30 16 6 30 10 44 10 10 0 17-2 22-5 6-4 8-8 8-15 0-11-14-19-41-25-9-2-16-3-21-5-29-7-51-20-66-38s-23-40-23-67c0-42 15-75 45-101s69-39 117-39c22 0 44 3 66 9 21 6 43 15 65 26l-42 101c-13-10-27-17-40-23-13-5-27-8-39-8-10 0-17 2-22 5s-8 8-8 14c0 11 19 21 58 29 6 1 11 3 14 3 27 6 48 18 63 37 15 18 23 41 23 67 0 43-15 78-46 105s-71 41-121 41c-25 0-51-4-76-11s-51-18-76-32zm-29-160c0 28-5 55-15 79s-25 46-44 66c-19 19-42 33-67 43s-52 15-81 15-56-5-81-15-48-25-67-44-34-40-44-64-15-51-15-80 5-55 15-80c10-24 24-46 44-65 19-19 42-33 67-43s52-15 81-15 56 5 81 15 48 24 67 43 33 41 43 65c10 25 15 51 15 80zm-207 73c20 0 35-7 47-20s18-31 18-53-6-40-18-53-28-20-47-20c-20 0-35 7-47 20-12 14-18 31-18 53s6 40 18 53 28 20 47 20zm-439-159v64h22c13 0 23-3 30-8 7-6 11-13 11-24 0-10-4-18-11-24s-17-9-30-9h-22zm-140 279v-387h166c58 0 101 11 128 34s41 58 41 107c0 46-12 79-36 100s-63 32-116 32h-44v114z" fill="#4c4c4c"/><g fill="#e67015"><path d="m1699 1857h417l-113 77h-255l-41-62c-3-5-6-10-8-14zm2036 69-462 2c-87 233-317 433-480 537-9 1-15 2-21 3-9 0-18 0-27 0-13 0-25 0-38-1-4-1-9-1-15-2-99-60-234-152-306-255l82-35c66 88 146 152 227 232l2-318 75-29 2 354c159-133 308-312 405-486l-36-2 172-76 468-1c-17 32-26 47-46 77zm-965-483-76 48v-123h76v76zm-537 334c-48-128-80-256-87-404h-73c7 161 34 302 86 452zm535-1225 1-431c135 105 277 255 377 431h91c-116-267-351-432-453-475-6-1-12-2-20-2-7 0-14 0-21 0-16 0-31 0-47 0-3 0-7 1-10 1-133 67-356 243-447 481h99c84-183 221-313 356-425l-1 421h74z"/><path d="m1481 1397 71-6c30 274 127 468 284 667l-56 47c-183-213-293-463-299-707zm666 912-80 40c195 122 430 191 677 191 555-10 1031-373 1200-876l-92 29c-162 448-605 775-1108 775-210 0-427-65-598-160zm-1564-1439 40-32 2073-73c62 3 136 51 158 94zm-154 119 2474-75c46 0 119 46 162 92l-2681 17 46-34zm-198 157 2861-79c77-3 162 55 176 87l-3079 28 43-35zm3467-590c-216-284-575-482-953-482-382-7-762 192-969 486l-89 2c229-335 622-561 1058-561 430 0 815 221 1044 553zm642 713c26 0 43 21 43 49 0 27-17 43-43 43s-49-15-49-43c0-27 23-49 49-49zm-3510-598 2959-79c346 79 338 347 169 567l323-3c161-7 248 143 403 292-442 49-844 158-1301 305-640 210-1234 469-1880 744 335-369 632-561 931-765 228-140 509-297 720-410h149c-176 88-430 240-661 372-245 140-566 356-786 574 564-233 1042-435 1599-611 311-96 674-210 1056-272-36-93-115-152-253-152h-465c99-108 182-267 181-388-1-76-111-152-194-151l-2984 12 35-33zm-830 667 37-30 3156-88c67 0 116-13 155 0 55 21 95 49 128 88l-3476 31z"/></g></g></svg>